G04*
G04 #@! TF.GenerationSoftware,Altium Limited,Altium Designer,20.0.13 (296)*
G04*
G04 Layer_Physical_Order=1*
G04 Layer_Color=255*
%FSLAX44Y44*%
%MOMM*%
G71*
G01*
G75*
%ADD11C,0.2000*%
%ADD16R,1.5000X2.1200*%
%ADD17R,0.6000X0.5000*%
%ADD18R,1.0000X0.8000*%
%ADD19R,0.5000X0.6000*%
%ADD20R,2.7940X3.8100*%
%ADD21R,2.1500X3.5000*%
%ADD22R,2.1500X0.9500*%
%ADD23R,2.1500X3.2500*%
%ADD24R,1.5600X0.4100*%
%ADD25R,1.6000X1.6000*%
%ADD26R,0.8000X1.0000*%
%ADD27R,1.2500X1.1000*%
%ADD55R,2.0000X2.0000*%
%ADD56C,2.0000*%
%ADD57C,0.3000*%
%ADD58C,0.4000*%
%ADD59C,1.0000*%
%ADD60C,0.5000*%
%ADD61C,2.2000*%
%ADD62R,1.2600X1.2600*%
%ADD63C,1.2600*%
%ADD64O,1.3208X2.6416*%
%ADD65R,1.3208X2.6416*%
%ADD66R,1.5000X1.5000*%
%ADD67C,1.5000*%
%ADD68R,1.5080X1.5080*%
%ADD69C,1.5080*%
%ADD70R,1.5000X1.5000*%
%ADD71C,1.9100*%
%ADD72R,1.9100X1.9100*%
%ADD73C,1.2000*%
%ADD74R,2.1000X2.1000*%
%ADD75C,2.1000*%
%ADD76C,0.7000*%
G36*
X324941Y405000D02*
X3059D01*
Y865941D01*
X324941D01*
Y405000D01*
D02*
G37*
G36*
X153554Y336548D02*
X153218Y336396D01*
X152921Y336143D01*
X152663Y335788D01*
X152445Y335332D01*
X152267Y334775D01*
X152128Y334117D01*
X152029Y333357D01*
X151970Y332496D01*
X151950Y331533D01*
X147950D01*
X147930Y332496D01*
X147772Y334117D01*
X147633Y334775D01*
X147455Y335332D01*
X147237Y335788D01*
X146980Y336143D01*
X146682Y336396D01*
X146346Y336548D01*
X145969Y336599D01*
X153931D01*
X153554Y336548D01*
D02*
G37*
G36*
X136979Y322620D02*
X137100Y322280D01*
X137302Y321980D01*
X137584Y321720D01*
X137947Y321500D01*
X138390Y321320D01*
X138914Y321180D01*
X139518Y321080D01*
X140204Y321020D01*
X140969Y321000D01*
Y317000D01*
X140204Y316980D01*
X139518Y316920D01*
X138914Y316820D01*
X138390Y316680D01*
X137947Y316500D01*
X137584Y316280D01*
X137302Y316020D01*
X137100Y315720D01*
X136979Y315380D01*
X136939Y315000D01*
Y323000D01*
X136979Y322620D01*
D02*
G37*
G36*
X321883Y6118D02*
X133109D01*
X132791Y7387D01*
X133408Y7718D01*
X135692Y9592D01*
X147408Y21308D01*
X149282Y23592D01*
X150675Y26198D01*
X151533Y29025D01*
X151823Y31966D01*
Y52792D01*
X152026Y53461D01*
X152325Y56500D01*
X152026Y59538D01*
X151139Y62460D01*
X149700Y65153D01*
X147763Y67513D01*
X145403Y69450D01*
X142710Y70889D01*
X139789Y71776D01*
X136750Y72075D01*
X133712Y71776D01*
X130790Y70889D01*
X128097Y69450D01*
X125737Y67513D01*
X123800Y65153D01*
X122361Y62460D01*
X121474Y59538D01*
X121175Y56500D01*
X121474Y53461D01*
X121677Y52792D01*
Y38209D01*
X118791Y35323D01*
X54959D01*
X52073Y38209D01*
Y52792D01*
X52276Y53461D01*
X52575Y56500D01*
X52276Y59538D01*
X51389Y62460D01*
X49950Y65153D01*
X48013Y67513D01*
X45653Y69450D01*
X42960Y70889D01*
X40038Y71776D01*
X37000Y72075D01*
X33962Y71776D01*
X31040Y70889D01*
X28347Y69450D01*
X25987Y67513D01*
X24050Y65153D01*
X22611Y62460D01*
X21724Y59538D01*
X21425Y56500D01*
X21724Y53461D01*
X21927Y52792D01*
Y31966D01*
X22217Y29025D01*
X23075Y26198D01*
X24468Y23592D01*
X26342Y21308D01*
X38058Y9592D01*
X40342Y7718D01*
X40959Y7387D01*
X40641Y6118D01*
X6118D01*
Y384500D01*
X104546D01*
X104798Y383230D01*
X104207Y382985D01*
X102118Y381382D01*
X78929Y358193D01*
X76701Y357271D01*
X74341Y355459D01*
X72530Y353099D01*
X71391Y350350D01*
X71003Y347400D01*
X71391Y344450D01*
X72530Y341701D01*
X74341Y339341D01*
X76701Y337529D01*
X79450Y336391D01*
X82400Y336003D01*
X85350Y336391D01*
X88099Y337529D01*
X90459Y339341D01*
X92271Y341701D01*
X93193Y343929D01*
X111773Y362509D01*
X112946Y362022D01*
Y330192D01*
X116000D01*
Y306250D01*
X142000D01*
Y311940D01*
X147250D01*
X149077Y312180D01*
X150780Y312885D01*
X152242Y314008D01*
X154942Y316707D01*
X156065Y318170D01*
X156770Y319873D01*
X157010Y321700D01*
Y331263D01*
X157047Y331428D01*
X157064Y332267D01*
X157090Y332649D01*
X158226Y333520D01*
X159644Y335368D01*
X160914Y334936D01*
Y318500D01*
X161257Y315889D01*
X162265Y313457D01*
X163868Y311368D01*
X171368Y303868D01*
X173457Y302265D01*
X175889Y301257D01*
X178500Y300914D01*
X184500D01*
Y298000D01*
X210500D01*
Y324000D01*
X184500D01*
Y321086D01*
X182678D01*
X181086Y322678D01*
Y366750D01*
X180743Y369361D01*
X179735Y371793D01*
X178132Y373882D01*
X170632Y381382D01*
X168543Y382985D01*
X167952Y383230D01*
X168204Y384500D01*
X321883D01*
Y6118D01*
D02*
G37*
%LPC*%
G36*
X288270Y825485D02*
Y813770D01*
X299985D01*
X299704Y815904D01*
X298390Y819076D01*
X296300Y821800D01*
X293576Y823890D01*
X290404Y825204D01*
X288270Y825485D01*
D02*
G37*
G36*
X285730D02*
X283596Y825204D01*
X280424Y823890D01*
X277700Y821800D01*
X275610Y819076D01*
X274296Y815904D01*
X274015Y813770D01*
X285730D01*
Y825485D01*
D02*
G37*
G36*
X50040Y825540D02*
X38270D01*
Y813770D01*
X50040D01*
Y825540D01*
D02*
G37*
G36*
X35730D02*
X23960D01*
Y813770D01*
X35730D01*
Y825540D01*
D02*
G37*
G36*
X299985Y811230D02*
X288270D01*
Y799515D01*
X290404Y799796D01*
X293576Y801110D01*
X296300Y803200D01*
X298390Y805924D01*
X299704Y809096D01*
X299985Y811230D01*
D02*
G37*
G36*
X285730D02*
X274015D01*
X274296Y809096D01*
X275610Y805924D01*
X277700Y803200D01*
X280424Y801110D01*
X283596Y799796D01*
X285730Y799515D01*
Y811230D01*
D02*
G37*
G36*
X50040D02*
X38270D01*
Y799460D01*
X50040D01*
Y811230D01*
D02*
G37*
G36*
X35730D02*
X23960D01*
Y799460D01*
X35730D01*
Y811230D01*
D02*
G37*
G36*
X249500Y825000D02*
X224500D01*
Y800000D01*
X245174D01*
X298441Y746733D01*
Y713250D01*
X292000D01*
Y688050D01*
X311000D01*
Y713250D01*
X304559D01*
Y748000D01*
X304326Y749171D01*
X303663Y750163D01*
X303663Y750163D01*
X249500Y804326D01*
Y825000D01*
D02*
G37*
G36*
X187000Y825108D02*
X183737Y824678D01*
X180696Y823419D01*
X178085Y821415D01*
X176081Y818804D01*
X174822Y815763D01*
X174392Y812500D01*
X174822Y809237D01*
X176081Y806196D01*
X178085Y803585D01*
X180696Y801581D01*
X183737Y800322D01*
X187000Y799892D01*
X190263Y800322D01*
X193304Y801581D01*
X193468Y801707D01*
X267191Y727983D01*
Y713250D01*
X260750D01*
Y688050D01*
X279750D01*
Y713250D01*
X273309D01*
Y729250D01*
X273076Y730421D01*
X272413Y731413D01*
X272413Y731413D01*
X197793Y806032D01*
X197919Y806196D01*
X199178Y809237D01*
X199608Y812500D01*
X199178Y815763D01*
X197919Y818804D01*
X195915Y821415D01*
X193304Y823419D01*
X190263Y824678D01*
X187000Y825108D01*
D02*
G37*
G36*
X149500Y825000D02*
X124500D01*
Y800000D01*
X133941D01*
Y775250D01*
X133941Y775250D01*
X134174Y774080D01*
X134837Y773087D01*
X143587Y764337D01*
X143587Y764337D01*
X144579Y763674D01*
X145750Y763441D01*
X145750Y763441D01*
X195233D01*
X235718Y722957D01*
Y713250D01*
X229277D01*
Y688050D01*
X248276D01*
Y713250D01*
X241835D01*
Y724223D01*
X241602Y725394D01*
X240939Y726386D01*
X240939Y726386D01*
X198663Y768663D01*
X197670Y769326D01*
X196500Y769559D01*
X196500Y769559D01*
X147017D01*
X140059Y776517D01*
Y800000D01*
X149500D01*
Y825000D01*
D02*
G37*
G36*
X111405Y709050D02*
X79465D01*
Y666950D01*
X88375D01*
Y658609D01*
X68008Y638242D01*
X66885Y636780D01*
X66180Y635077D01*
X65940Y633250D01*
Y604108D01*
X66180Y602281D01*
X66885Y600578D01*
X68008Y599115D01*
X73865Y593258D01*
X75328Y592136D01*
X77031Y591430D01*
X78858Y591190D01*
X86711D01*
Y585500D01*
X86866Y584720D01*
X87308Y584058D01*
X87970Y583616D01*
X88750Y583461D01*
X98711D01*
Y574500D01*
X98866Y573720D01*
X99308Y573058D01*
X99970Y572616D01*
X100750Y572461D01*
X113750D01*
X114530Y572616D01*
X115192Y573058D01*
X115634Y573720D01*
X115789Y574500D01*
Y583461D01*
X132750D01*
X133530Y583616D01*
X134192Y584058D01*
X134634Y584720D01*
X134789Y585500D01*
Y596054D01*
X141742Y603008D01*
X142865Y604470D01*
X143570Y606173D01*
X143810Y608000D01*
Y671868D01*
X145532Y673590D01*
X151210D01*
Y671110D01*
X170290D01*
Y690190D01*
X151210D01*
Y687710D01*
X142608D01*
X140780Y687470D01*
X139078Y686765D01*
X137615Y685642D01*
X131757Y679785D01*
X130635Y678322D01*
X129930Y676619D01*
X129690Y674792D01*
Y612539D01*
X115789D01*
Y621500D01*
X115634Y622280D01*
X115192Y622942D01*
X114530Y623384D01*
X113750Y623539D01*
X100750D01*
X99970Y623384D01*
X99308Y622942D01*
X98866Y622280D01*
X98711Y621500D01*
Y612539D01*
X88750D01*
X87970Y612384D01*
X87308Y611942D01*
X86866Y611280D01*
X86711Y610500D01*
Y605310D01*
X81782D01*
X80060Y607032D01*
Y630326D01*
X100427Y650693D01*
X101550Y652155D01*
X102255Y653858D01*
X102495Y655685D01*
Y666950D01*
X111405D01*
Y709050D01*
D02*
G37*
G36*
X87000Y825108D02*
X83737Y824678D01*
X80696Y823419D01*
X78085Y821415D01*
X76081Y818804D01*
X74822Y815763D01*
X74392Y812500D01*
X74822Y809237D01*
X76081Y806196D01*
X78085Y803585D01*
X79940Y802162D01*
Y784425D01*
X19073Y723558D01*
X17951Y722095D01*
X17245Y720392D01*
X17005Y718565D01*
Y709050D01*
X8095D01*
Y666950D01*
X40035D01*
Y709050D01*
X31125D01*
Y715640D01*
X91992Y776508D01*
X93115Y777970D01*
X93820Y779673D01*
X94060Y781500D01*
Y802162D01*
X95915Y803585D01*
X97919Y806196D01*
X99178Y809237D01*
X99608Y812500D01*
X99178Y815763D01*
X97919Y818804D01*
X95915Y821415D01*
X93304Y823419D01*
X90263Y824678D01*
X87000Y825108D01*
D02*
G37*
G36*
X311540Y671490D02*
X302770D01*
Y659620D01*
X311540D01*
Y671490D01*
D02*
G37*
G36*
X248816D02*
X240047D01*
Y659620D01*
X248816D01*
Y671490D01*
D02*
G37*
G36*
X300230D02*
X291460D01*
Y659620D01*
X300230D01*
Y671490D01*
D02*
G37*
G36*
X237507D02*
X228736D01*
Y659620D01*
X237507D01*
Y671490D01*
D02*
G37*
G36*
X280290D02*
X271520D01*
Y659620D01*
X280290D01*
Y671490D01*
D02*
G37*
G36*
X268980D02*
X260210D01*
Y659620D01*
X268980D01*
Y671490D01*
D02*
G37*
G36*
X162020Y665250D02*
Y656520D01*
X170750D01*
X170571Y657881D01*
X169555Y660333D01*
X167939Y662439D01*
X165833Y664055D01*
X163381Y665070D01*
X162020Y665250D01*
D02*
G37*
G36*
X159480D02*
X158119Y665070D01*
X155667Y664055D01*
X153561Y662439D01*
X151945Y660333D01*
X150929Y657881D01*
X150750Y656520D01*
X159480D01*
Y665250D01*
D02*
G37*
G36*
X170750Y653980D02*
X162020D01*
Y645250D01*
X163381Y645430D01*
X165833Y646445D01*
X167939Y648061D01*
X169555Y650166D01*
X170571Y652619D01*
X170750Y653980D01*
D02*
G37*
G36*
X159480D02*
X150750D01*
X150929Y652619D01*
X151945Y650166D01*
X153561Y648061D01*
X155667Y646445D01*
X158119Y645430D01*
X159480Y645250D01*
Y653980D01*
D02*
G37*
G36*
X311540Y657080D02*
X302770D01*
Y645210D01*
X311540D01*
Y657080D01*
D02*
G37*
G36*
X300230D02*
X291460D01*
Y645210D01*
X300230D01*
Y657080D01*
D02*
G37*
G36*
X280290Y657080D02*
X271520D01*
Y645210D01*
X280290D01*
Y657080D01*
D02*
G37*
G36*
X268980D02*
X260210D01*
Y645210D01*
X268980D01*
Y657080D01*
D02*
G37*
G36*
X248816Y657080D02*
X240047D01*
Y645210D01*
X248816D01*
Y657080D01*
D02*
G37*
G36*
X237507D02*
X228736D01*
Y645210D01*
X237507D01*
Y657080D01*
D02*
G37*
G36*
X283540Y635790D02*
X271520D01*
Y617020D01*
X283540D01*
Y635790D01*
D02*
G37*
G36*
X268980D02*
X256960D01*
Y617020D01*
X268980D01*
Y635790D01*
D02*
G37*
G36*
X43790Y610540D02*
X37750D01*
Y610500D01*
X43790D01*
Y610540D01*
D02*
G37*
G36*
X24750D02*
X18710D01*
Y610500D01*
X24750D01*
Y610540D01*
D02*
G37*
G36*
X43790Y585500D02*
X37750D01*
Y585460D01*
X43790D01*
Y585500D01*
D02*
G37*
G36*
X24750D02*
X18710D01*
Y585460D01*
X24750D01*
Y585500D01*
D02*
G37*
G36*
X283540Y614480D02*
X270250D01*
X256960D01*
Y596748D01*
X256960Y595710D01*
X255786Y595478D01*
X254150D01*
X252589Y595168D01*
X251266Y594284D01*
X251266Y594284D01*
X237616Y580634D01*
X236732Y579311D01*
X236422Y577750D01*
X236422Y577750D01*
Y572500D01*
X227750D01*
Y560838D01*
X219500D01*
Y563000D01*
X194000D01*
Y560838D01*
X161500D01*
Y574500D01*
X136000D01*
Y538000D01*
X161500D01*
Y551662D01*
X194000D01*
Y549500D01*
X219500D01*
Y551662D01*
X227750D01*
Y533500D01*
X231922D01*
Y528818D01*
X231902Y528595D01*
X231887Y528494D01*
X230819Y526896D01*
X230392Y524750D01*
X230819Y522604D01*
X232035Y520785D01*
X233854Y519569D01*
X236000Y519142D01*
X238146Y519569D01*
X239965Y520785D01*
X241181Y522604D01*
X241608Y524750D01*
X241181Y526896D01*
X240113Y528494D01*
X240100Y528577D01*
X240078Y528898D01*
Y533500D01*
X253250D01*
Y572500D01*
X244578D01*
Y576061D01*
X255839Y587322D01*
X297907D01*
X298202Y586609D01*
X299725Y584625D01*
X301709Y583102D01*
X304020Y582145D01*
X306500Y581818D01*
X308980Y582145D01*
X311291Y583102D01*
X313275Y584625D01*
X314798Y586609D01*
X315756Y588920D01*
X316082Y591400D01*
X315756Y593880D01*
X314798Y596191D01*
X313275Y598176D01*
X311291Y599698D01*
X308980Y600656D01*
X306500Y600982D01*
X304020Y600656D01*
X301709Y599698D01*
X299725Y598176D01*
X298202Y596191D01*
X297907Y595478D01*
X284714D01*
X283540Y595710D01*
X283540Y596748D01*
Y614480D01*
D02*
G37*
G36*
X160750Y639472D02*
X158260Y639144D01*
X155939Y638183D01*
X153946Y636654D01*
X152417Y634661D01*
X151456Y632340D01*
X151128Y629850D01*
X151456Y627360D01*
X152417Y625039D01*
X153946Y623046D01*
X155939Y621517D01*
X158260Y620556D01*
X160332Y620283D01*
X169858Y610758D01*
X171320Y609636D01*
X173023Y608930D01*
X174850Y608690D01*
X222500D01*
Y596250D01*
X225690D01*
Y594674D01*
X221922Y590906D01*
X221820Y590864D01*
X220358Y589743D01*
X217176Y586560D01*
X207000D01*
X205173Y586320D01*
X204401Y586000D01*
X194000D01*
Y572500D01*
X204754D01*
X204923Y572430D01*
X206750Y572190D01*
X208577Y572430D01*
X208600Y572440D01*
X220100D01*
X221928Y572680D01*
X223631Y573386D01*
X225093Y574508D01*
X229179Y578594D01*
X229280Y578636D01*
X230742Y579758D01*
X237743Y586758D01*
X238864Y588220D01*
X239570Y589923D01*
X239810Y591750D01*
Y596250D01*
X248000D01*
Y635250D01*
X222500D01*
Y622810D01*
X177775D01*
X170317Y630267D01*
X170044Y632340D01*
X169083Y634661D01*
X167554Y636654D01*
X165561Y638183D01*
X163240Y639144D01*
X160750Y639472D01*
D02*
G37*
G36*
X306500Y575582D02*
X304020Y575256D01*
X301709Y574298D01*
X299725Y572775D01*
X298202Y570791D01*
X297244Y568480D01*
X296918Y566000D01*
X297244Y563520D01*
X298202Y561209D01*
X299725Y559225D01*
X301709Y557702D01*
X304020Y556745D01*
X306500Y556418D01*
X308980Y556745D01*
X311291Y557702D01*
X313275Y559225D01*
X314798Y561209D01*
X315756Y563520D01*
X316082Y566000D01*
X315756Y568480D01*
X314798Y570791D01*
X313275Y572775D01*
X311291Y574298D01*
X308980Y575256D01*
X306500Y575582D01*
D02*
G37*
G36*
X288790Y573040D02*
X276770D01*
Y554270D01*
X288790D01*
Y573040D01*
D02*
G37*
G36*
X274230D02*
X262210D01*
Y554270D01*
X274230D01*
Y573040D01*
D02*
G37*
G36*
X307770Y550559D02*
Y541870D01*
X316459D01*
X316282Y543221D01*
X315270Y545663D01*
X313661Y547761D01*
X311563Y549370D01*
X309121Y550382D01*
X307770Y550559D01*
D02*
G37*
G36*
X305230D02*
X303879Y550382D01*
X301437Y549370D01*
X299339Y547761D01*
X297730Y545663D01*
X296718Y543221D01*
X296541Y541870D01*
X305230D01*
Y550559D01*
D02*
G37*
G36*
X220040Y540540D02*
X208020D01*
Y534520D01*
X220040D01*
Y540540D01*
D02*
G37*
G36*
X205480D02*
X193460D01*
Y534520D01*
X205480D01*
Y540540D01*
D02*
G37*
G36*
X288790Y551730D02*
X276770D01*
Y532960D01*
X288790D01*
Y551730D01*
D02*
G37*
G36*
X274230D02*
X262210D01*
Y532960D01*
X274230D01*
Y551730D01*
D02*
G37*
G36*
X316459Y539330D02*
X307770D01*
Y530641D01*
X309121Y530818D01*
X311563Y531830D01*
X313661Y533439D01*
X315270Y535537D01*
X316282Y537979D01*
X316459Y539330D01*
D02*
G37*
G36*
X305230D02*
X296541D01*
X296718Y537979D01*
X297730Y535537D01*
X299339Y533439D01*
X301437Y531830D01*
X303879Y530818D01*
X305230Y530641D01*
Y539330D01*
D02*
G37*
G36*
X205480Y531980D02*
X193460D01*
Y527059D01*
X134872D01*
X134872Y527059D01*
X133701Y526826D01*
X132709Y526163D01*
X127898Y521352D01*
X126991Y522048D01*
X124680Y523005D01*
X122200Y523332D01*
X119720Y523005D01*
X117409Y522048D01*
X115425Y520526D01*
X113902Y518541D01*
X112945Y516230D01*
X112618Y513750D01*
X112945Y511270D01*
X113902Y508959D01*
X115425Y506975D01*
X117409Y505452D01*
X119720Y504495D01*
X122200Y504168D01*
X124680Y504495D01*
X126991Y505452D01*
X128975Y506975D01*
X130498Y508959D01*
X131455Y511270D01*
X131782Y513750D01*
X131455Y516230D01*
X131447Y516250D01*
X136139Y520941D01*
X199483D01*
X204691Y515733D01*
Y501250D01*
X204691Y501250D01*
X204924Y500079D01*
X205587Y499087D01*
X224837Y479837D01*
X224837Y479837D01*
X225067Y479684D01*
X224799Y478335D01*
X224751Y478326D01*
X223759Y477663D01*
X223759Y477663D01*
X222587Y476491D01*
X221924Y475499D01*
X221874Y475248D01*
X220496Y474830D01*
X217663Y477663D01*
X216671Y478326D01*
X215500Y478559D01*
X215500Y478559D01*
X193290D01*
Y480730D01*
X182950D01*
Y483270D01*
X193290D01*
Y485441D01*
X196250D01*
X196250Y485441D01*
X197421Y485674D01*
X198413Y486337D01*
X200163Y488087D01*
X200163Y488087D01*
X200826Y489079D01*
X201059Y490250D01*
Y511500D01*
X201059Y511500D01*
X200826Y512671D01*
X200163Y513663D01*
X200163Y513663D01*
X196163Y517663D01*
X195171Y518326D01*
X194000Y518559D01*
X194000Y518559D01*
X154500D01*
X153329Y518326D01*
X152337Y517663D01*
X152337Y517663D01*
X135483Y500809D01*
X100309D01*
Y504921D01*
X101591Y505452D01*
X103575Y506975D01*
X105098Y508959D01*
X106055Y511270D01*
X106382Y513750D01*
X106055Y516230D01*
X105098Y518541D01*
X103575Y520526D01*
X101591Y522048D01*
X99280Y523005D01*
X96800Y523332D01*
X94320Y523005D01*
X92009Y522048D01*
X90025Y520526D01*
X88502Y518541D01*
X87545Y516230D01*
X87218Y513750D01*
X87545Y511270D01*
X88502Y508959D01*
X90025Y506975D01*
X92009Y505452D01*
X94191Y504548D01*
Y498922D01*
X94191Y498922D01*
X94424Y497751D01*
X95087Y496759D01*
X96259Y495587D01*
X96259Y495587D01*
X97251Y494924D01*
X98422Y494691D01*
X98422Y494691D01*
X136750D01*
X136750Y494691D01*
X137921Y494924D01*
X138913Y495587D01*
X155767Y512441D01*
X172042D01*
X173150Y512050D01*
Y504559D01*
X155750D01*
X155750Y504559D01*
X154579Y504326D01*
X153587Y503663D01*
X141733Y491809D01*
X110000D01*
X108829Y491576D01*
X107837Y490913D01*
X107837Y490913D01*
X84174Y467250D01*
X79000D01*
Y458520D01*
X79000Y458250D01*
Y457250D01*
X79000Y456980D01*
Y448250D01*
X80941D01*
Y431900D01*
X74100D01*
Y415300D01*
X90700D01*
Y431900D01*
X87059D01*
Y448250D01*
X89000D01*
Y456980D01*
X89000Y457250D01*
Y458250D01*
X89000Y458520D01*
Y463424D01*
X111267Y485691D01*
X143000D01*
X143000Y485691D01*
X144171Y485924D01*
X145163Y486587D01*
X157017Y498441D01*
X164214D01*
X164600Y497171D01*
X164587Y497163D01*
X164587Y497163D01*
X156962Y489538D01*
X156962Y489538D01*
X155196Y487772D01*
X154856Y487454D01*
X154681Y487313D01*
X149563D01*
Y483172D01*
X149392Y483138D01*
X148400Y482475D01*
X122387Y456463D01*
X121724Y455471D01*
X121491Y454300D01*
X121491Y454300D01*
Y439250D01*
X120211Y438720D01*
X118414Y437341D01*
X117034Y435543D01*
X116167Y433450D01*
X115872Y431204D01*
Y417996D01*
X116167Y415750D01*
X117034Y413657D01*
X118414Y411860D01*
X120211Y410480D01*
X122304Y409613D01*
X124550Y409318D01*
X126796Y409613D01*
X128889Y410480D01*
X130686Y411860D01*
X132066Y413657D01*
X132933Y415750D01*
X133228Y417996D01*
Y431204D01*
X132933Y433450D01*
X132066Y435543D01*
X130686Y437341D01*
X128889Y438720D01*
X127609Y439250D01*
Y453033D01*
X151830Y477254D01*
X152562D01*
X152563Y477254D01*
X152858Y477313D01*
X158293D01*
X158562Y477313D01*
Y477313D01*
X159563D01*
Y477313D01*
X164737D01*
X168712Y473337D01*
X168712Y473337D01*
X168725Y473329D01*
X168339Y472059D01*
X163500D01*
X162330Y471826D01*
X161337Y471163D01*
X141543Y451369D01*
X140880Y450377D01*
X140647Y449206D01*
X140647Y449206D01*
Y446144D01*
X139741Y445538D01*
X138525Y443719D01*
X138098Y441573D01*
X138525Y439427D01*
X139741Y437608D01*
X141061Y436726D01*
X141574Y436208D01*
X141657Y435078D01*
X141041Y433591D01*
X140727Y431204D01*
Y425870D01*
X149950D01*
X159173D01*
Y431204D01*
X158859Y433591D01*
X158362Y434790D01*
X158961Y435910D01*
X159053Y435928D01*
X160872Y437144D01*
X162088Y438963D01*
X162515Y441109D01*
X162169Y442844D01*
X169913Y450587D01*
X169913Y450587D01*
X170576Y451580D01*
X170809Y452750D01*
X170809Y452750D01*
Y459441D01*
X173150D01*
Y451950D01*
Y445450D01*
X192750D01*
Y446441D01*
X199679D01*
X200285Y445535D01*
X202104Y444319D01*
X204250Y443892D01*
X206396Y444319D01*
X208215Y445535D01*
X209431Y447354D01*
X209858Y449500D01*
X209431Y451646D01*
X208215Y453465D01*
X206396Y454681D01*
X204250Y455108D01*
X202104Y454681D01*
X200285Y453465D01*
X199679Y452559D01*
X194622D01*
X194237Y453829D01*
X194741Y454166D01*
X200280Y459704D01*
X201604Y458819D01*
X203750Y458392D01*
X205896Y458819D01*
X207715Y460035D01*
X208931Y461854D01*
X209358Y464000D01*
X208931Y466146D01*
X207715Y467965D01*
X205896Y469181D01*
X203750Y469608D01*
X201604Y469181D01*
X199785Y467965D01*
X198569Y466146D01*
X198549Y466043D01*
X198233Y465980D01*
X197241Y465317D01*
X197241Y465317D01*
X193923Y461999D01*
X192750Y462485D01*
Y472441D01*
X214233D01*
X217191Y469483D01*
Y434059D01*
X205500D01*
Y438250D01*
X193500D01*
Y424250D01*
X196441D01*
Y422422D01*
X196441Y422422D01*
X196674Y421251D01*
X197337Y420259D01*
X198509Y419087D01*
X198509Y419087D01*
X199501Y418424D01*
X200672Y418191D01*
X200672Y418191D01*
X209179D01*
X209785Y417285D01*
X211604Y416069D01*
X213750Y415642D01*
X215896Y416069D01*
X217715Y417285D01*
X218321Y418191D01*
X228328D01*
X228328Y418191D01*
X229499Y418424D01*
X230491Y419087D01*
X231663Y420259D01*
X231663Y420259D01*
X232326Y421251D01*
X232559Y422422D01*
X232559Y422422D01*
Y424250D01*
X235500D01*
Y438250D01*
X231446D01*
X231248Y439249D01*
X230585Y440241D01*
X230584Y440241D01*
X227809Y443017D01*
Y472441D01*
X230750D01*
Y464950D01*
Y458450D01*
Y451950D01*
Y445450D01*
X241304D01*
X241600Y445391D01*
X247783D01*
X255941Y437233D01*
Y432250D01*
X255941Y432250D01*
X256174Y431079D01*
X256837Y430087D01*
X258837Y428087D01*
X258837Y428087D01*
X259830Y427424D01*
X261000Y427191D01*
Y425250D01*
X269414Y425250D01*
X270460Y424710D01*
X271046Y424710D01*
X274230D01*
Y430250D01*
Y435790D01*
X270460D01*
X269414Y435250D01*
X262059Y435250D01*
Y438500D01*
X261826Y439670D01*
X261786Y439730D01*
X262465Y441000D01*
X269730D01*
X270000Y441000D01*
X271000D01*
X271270Y441000D01*
X280000D01*
Y442941D01*
X283000D01*
Y438500D01*
X299500D01*
Y453480D01*
X299500Y453500D01*
X299548Y454750D01*
X299750D01*
Y469750D01*
X283250D01*
Y465559D01*
X279750D01*
Y467500D01*
X271020D01*
X270750Y467500D01*
X269750D01*
X269480Y467500D01*
X261872D01*
X261346Y468770D01*
X264076Y471500D01*
X269250D01*
Y472941D01*
X274250D01*
X274250Y472941D01*
X275421Y473174D01*
X276413Y473837D01*
X281913Y479337D01*
X281913Y479337D01*
X282576Y480330D01*
X282809Y481500D01*
X283886Y482000D01*
X286750D01*
Y486741D01*
X297000D01*
Y480300D01*
X316000D01*
Y499300D01*
X297000D01*
Y492859D01*
X286750D01*
Y494000D01*
X272750D01*
Y482000D01*
X274265D01*
X274751Y480827D01*
X272983Y479059D01*
X269250D01*
Y480500D01*
X269250D01*
Y481500D01*
X269250D01*
Y490500D01*
X259250D01*
Y489916D01*
X258422Y489059D01*
X257251Y488826D01*
X256259Y488163D01*
X256259Y488163D01*
X255087Y486991D01*
X254424Y485999D01*
X254191Y484828D01*
X254191Y484828D01*
Y478309D01*
X250350D01*
Y484450D01*
Y491941D01*
X255250D01*
X255250Y491941D01*
X256420Y492174D01*
X257413Y492837D01*
X270940Y506364D01*
X271808Y506149D01*
X272210Y505876D01*
Y505270D01*
X278480D01*
Y510540D01*
X272210Y510540D01*
X272059Y511747D01*
Y517429D01*
X272965Y518035D01*
X274181Y519854D01*
X274608Y522000D01*
X274181Y524146D01*
X272965Y525965D01*
X271146Y527181D01*
X269000Y527608D01*
X266854Y527181D01*
X265035Y525965D01*
X263819Y524146D01*
X263392Y522000D01*
X263819Y519854D01*
X265035Y518035D01*
X265941Y517429D01*
Y510017D01*
X253983Y498059D01*
X252786D01*
X252400Y499329D01*
X252413Y499337D01*
X255663Y502587D01*
X255663Y502587D01*
X256326Y503579D01*
X256559Y504750D01*
Y516429D01*
X257465Y517035D01*
X258681Y518854D01*
X259108Y521000D01*
X258681Y523146D01*
X257465Y524965D01*
X255646Y526181D01*
X253500Y526608D01*
X251354Y526181D01*
X249535Y524965D01*
X248319Y523146D01*
X247892Y521000D01*
X248319Y518854D01*
X249535Y517035D01*
X250441Y516429D01*
Y513282D01*
X250350Y512050D01*
X230750D01*
Y503950D01*
Y497450D01*
Y485059D01*
X228267D01*
X210809Y502517D01*
Y517000D01*
X210809Y517000D01*
X210576Y518171D01*
X209913Y519163D01*
X209913Y519163D01*
X204289Y524787D01*
X204775Y525960D01*
X205480D01*
Y531980D01*
D02*
G37*
G36*
X220040D02*
X208020D01*
Y525960D01*
X220040D01*
Y531980D01*
D02*
G37*
G36*
X47270Y523709D02*
Y515020D01*
X55959D01*
X55782Y516371D01*
X54770Y518813D01*
X53161Y520911D01*
X51063Y522520D01*
X48621Y523532D01*
X47270Y523709D01*
D02*
G37*
G36*
X44730D02*
X43379Y523532D01*
X40937Y522520D01*
X38839Y520911D01*
X37230Y518813D01*
X36218Y516371D01*
X36041Y515020D01*
X44730D01*
Y523709D01*
D02*
G37*
G36*
X306500Y524782D02*
X304020Y524455D01*
X301709Y523498D01*
X299725Y521976D01*
X298202Y519991D01*
X297244Y517680D01*
X296918Y515200D01*
X297244Y512720D01*
X298202Y510409D01*
X299725Y508425D01*
X301709Y506902D01*
X304020Y505945D01*
X306500Y505618D01*
X308980Y505945D01*
X311291Y506902D01*
X313275Y508425D01*
X314798Y510409D01*
X315756Y512720D01*
X316082Y515200D01*
X315756Y517680D01*
X314798Y519991D01*
X313275Y521976D01*
X311291Y523498D01*
X308980Y524455D01*
X306500Y524782D01*
D02*
G37*
G36*
X281020Y510540D02*
Y505270D01*
X287290D01*
Y510540D01*
X281020D01*
D02*
G37*
G36*
X30100Y523250D02*
X11100D01*
Y504250D01*
X30100D01*
Y523250D01*
D02*
G37*
G36*
X71400Y523332D02*
X68920Y523005D01*
X66609Y522048D01*
X64625Y520526D01*
X63102Y518541D01*
X62145Y516230D01*
X61818Y513750D01*
X62145Y511270D01*
X63102Y508959D01*
X64625Y506975D01*
X66609Y505452D01*
X68920Y504495D01*
X71400Y504168D01*
X73880Y504495D01*
X76191Y505452D01*
X78176Y506975D01*
X79698Y508959D01*
X80655Y511270D01*
X80982Y513750D01*
X80655Y516230D01*
X79698Y518541D01*
X78176Y520526D01*
X76191Y522048D01*
X73880Y523005D01*
X71400Y523332D01*
D02*
G37*
G36*
X55959Y512480D02*
X47270D01*
Y503791D01*
X48621Y503968D01*
X51063Y504980D01*
X53161Y506589D01*
X54770Y508687D01*
X55782Y511129D01*
X55959Y512480D01*
D02*
G37*
G36*
X44730D02*
X36041D01*
X36218Y511129D01*
X37230Y508687D01*
X38839Y506589D01*
X40937Y504980D01*
X43379Y503968D01*
X44730Y503791D01*
Y512480D01*
D02*
G37*
G36*
X287290Y502730D02*
X281020D01*
Y497460D01*
X287290D01*
Y502730D01*
D02*
G37*
G36*
X278480D02*
X272210D01*
Y497460D01*
X278480D01*
Y502730D01*
D02*
G37*
G36*
X323290Y470290D02*
X315770D01*
Y463520D01*
X323290D01*
Y470290D01*
D02*
G37*
G36*
X313230D02*
X305710D01*
Y463520D01*
X313230D01*
Y470290D01*
D02*
G37*
G36*
X323290Y460980D02*
X305710D01*
Y455206D01*
X305460Y454040D01*
X305460Y453044D01*
Y447270D01*
X323040D01*
Y453044D01*
X323290Y454210D01*
X323290Y455206D01*
Y460980D01*
D02*
G37*
G36*
X323040Y444730D02*
X315520D01*
Y437960D01*
X323040D01*
Y444730D01*
D02*
G37*
G36*
X312980D02*
X305460D01*
Y437960D01*
X312980D01*
Y444730D01*
D02*
G37*
G36*
X252040Y438790D02*
X246770D01*
Y432520D01*
X252040D01*
Y438790D01*
D02*
G37*
G36*
X244230D02*
X238960D01*
Y432520D01*
X244230D01*
Y438790D01*
D02*
G37*
G36*
X190040D02*
X184770D01*
Y432520D01*
X190040D01*
Y438790D01*
D02*
G37*
G36*
X182230D02*
X176960D01*
Y432520D01*
X182230D01*
Y438790D01*
D02*
G37*
G36*
X276770Y435790D02*
Y431520D01*
X280540D01*
Y435790D01*
X276770D01*
D02*
G37*
G36*
X58270Y432349D02*
Y424870D01*
X65749D01*
X65613Y425908D01*
X64722Y428058D01*
X63305Y429905D01*
X61458Y431322D01*
X59308Y432212D01*
X58270Y432349D01*
D02*
G37*
G36*
X55730D02*
X54692Y432212D01*
X52542Y431322D01*
X50695Y429905D01*
X49278Y428058D01*
X48388Y425908D01*
X48251Y424870D01*
X55730D01*
Y432349D01*
D02*
G37*
G36*
X280540Y428980D02*
X276770D01*
Y424710D01*
X280540D01*
Y428980D01*
D02*
G37*
G36*
X252040Y429980D02*
X246770D01*
Y423710D01*
X252040D01*
Y429980D01*
D02*
G37*
G36*
X244230D02*
X238960D01*
Y423710D01*
X244230D01*
Y429980D01*
D02*
G37*
G36*
X190040Y429980D02*
X184770D01*
Y423710D01*
X190040D01*
Y429980D01*
D02*
G37*
G36*
X182230D02*
X176960D01*
Y423710D01*
X182230D01*
Y429980D01*
D02*
G37*
G36*
X31600Y431972D02*
X29433Y431686D01*
X27414Y430850D01*
X25680Y429520D01*
X24350Y427786D01*
X23514Y425767D01*
X23228Y423600D01*
X23514Y421433D01*
X24350Y419414D01*
X25680Y417680D01*
X27414Y416350D01*
X29433Y415514D01*
X31600Y415228D01*
X33767Y415514D01*
X35786Y416350D01*
X37520Y417680D01*
X38850Y419414D01*
X39686Y421433D01*
X39972Y423600D01*
X39686Y425767D01*
X38850Y427786D01*
X37520Y429520D01*
X35786Y430850D01*
X33767Y431686D01*
X31600Y431972D01*
D02*
G37*
G36*
X65749Y422330D02*
X58270D01*
Y414851D01*
X59308Y414987D01*
X61458Y415878D01*
X63305Y417295D01*
X64722Y419142D01*
X65613Y421292D01*
X65749Y422330D01*
D02*
G37*
G36*
X55730D02*
X48251D01*
X48388Y421292D01*
X49278Y419142D01*
X50695Y417295D01*
X52542Y415878D01*
X54692Y414987D01*
X55730Y414851D01*
Y422330D01*
D02*
G37*
G36*
X159173Y423330D02*
X151220D01*
Y408940D01*
X152337Y409087D01*
X154561Y410009D01*
X156472Y411474D01*
X157937Y413385D01*
X158859Y415609D01*
X159173Y417996D01*
Y423330D01*
D02*
G37*
G36*
X148680D02*
X140727D01*
Y417996D01*
X141041Y415609D01*
X141963Y413385D01*
X143428Y411474D01*
X145338Y410009D01*
X147563Y409087D01*
X148680Y408940D01*
Y423330D01*
D02*
G37*
%LPD*%
G36*
X302510Y712834D02*
X302540Y712489D01*
X302590Y712184D01*
X302660Y711920D01*
X302750Y711697D01*
X302860Y711514D01*
X302990Y711372D01*
X303140Y711270D01*
X303310Y711209D01*
X303500Y711189D01*
X299500D01*
X299690Y711209D01*
X299860Y711270D01*
X300010Y711372D01*
X300140Y711514D01*
X300250Y711697D01*
X300340Y711920D01*
X300410Y712184D01*
X300460Y712489D01*
X300490Y712834D01*
X300500Y713220D01*
X302500D01*
X302510Y712834D01*
D02*
G37*
G36*
X271260D02*
X271290Y712489D01*
X271340Y712184D01*
X271410Y711920D01*
X271500Y711697D01*
X271610Y711514D01*
X271740Y711372D01*
X271890Y711270D01*
X272060Y711209D01*
X272250Y711189D01*
X268250D01*
X268440Y711209D01*
X268610Y711270D01*
X268760Y711372D01*
X268890Y711514D01*
X269000Y711697D01*
X269090Y711920D01*
X269160Y712184D01*
X269210Y712489D01*
X269240Y712834D01*
X269250Y713220D01*
X271250D01*
X271260Y712834D01*
D02*
G37*
G36*
X138810Y802010D02*
X138640Y801951D01*
X138490Y801851D01*
X138360Y801711D01*
X138250Y801531D01*
X138160Y801311D01*
X138090Y801050D01*
X138040Y800751D01*
X138010Y800411D01*
X138000Y800031D01*
X136000D01*
X135990Y800411D01*
X135960Y800751D01*
X135910Y801050D01*
X135840Y801311D01*
X135750Y801531D01*
X135640Y801711D01*
X135510Y801851D01*
X135360Y801951D01*
X135190Y802010D01*
X135000Y802030D01*
X139000D01*
X138810Y802010D01*
D02*
G37*
G36*
X239786Y712834D02*
X239816Y712489D01*
X239866Y712184D01*
X239936Y711920D01*
X240026Y711697D01*
X240136Y711514D01*
X240266Y711372D01*
X240416Y711270D01*
X240586Y711209D01*
X240776Y711189D01*
X236776D01*
X236966Y711209D01*
X237136Y711270D01*
X237286Y711372D01*
X237416Y711514D01*
X237526Y711697D01*
X237616Y711920D01*
X237686Y712184D01*
X237736Y712489D01*
X237766Y712834D01*
X237776Y713220D01*
X239776D01*
X239786Y712834D01*
D02*
G37*
G36*
X113750Y610500D02*
X132750D01*
Y585500D01*
X113750D01*
Y574500D01*
X100750D01*
Y585500D01*
X88750D01*
Y593211D01*
X87281Y593250D01*
Y603250D01*
X88750Y603287D01*
Y610500D01*
X100750D01*
Y621500D01*
X113750D01*
Y610500D01*
D02*
G37*
G36*
X238004Y529332D02*
X238072Y528351D01*
X238113Y528088D01*
X238162Y527857D01*
X238221Y527657D01*
X238288Y527490D01*
X238365Y527354D01*
X238450Y527249D01*
X233550D01*
X233636Y527354D01*
X233712Y527490D01*
X233780Y527657D01*
X233838Y527857D01*
X233888Y528088D01*
X233928Y528351D01*
X233982Y528973D01*
X234000Y529722D01*
X238000D01*
X238004Y529332D01*
D02*
G37*
G36*
X248309Y503254D02*
X248367Y503096D01*
X248465Y502956D01*
X248603Y502835D01*
X248779Y502733D01*
X248995Y502649D01*
X249250Y502584D01*
X249544Y502537D01*
X249877Y502509D01*
X250250Y502500D01*
Y500500D01*
X249877Y500491D01*
X249544Y500463D01*
X249250Y500416D01*
X248995Y500351D01*
X248779Y500267D01*
X248603Y500165D01*
X248465Y500044D01*
X248367Y499905D01*
X248309Y499746D01*
X248289Y499570D01*
Y503430D01*
X248309Y503254D01*
D02*
G37*
G36*
X175211Y499500D02*
X175191Y499690D01*
X175130Y499860D01*
X175028Y500010D01*
X174886Y500140D01*
X174703Y500250D01*
X174480Y500340D01*
X174216Y500410D01*
X173911Y500460D01*
X173566Y500490D01*
X173181Y500500D01*
Y502500D01*
X173566Y502510D01*
X173911Y502540D01*
X174216Y502590D01*
X174480Y502660D01*
X174703Y502750D01*
X174886Y502860D01*
X175028Y502990D01*
X175130Y503140D01*
X175191Y503310D01*
X175211Y503500D01*
Y499500D01*
D02*
G37*
G36*
X248309Y496810D02*
X248370Y496640D01*
X248472Y496490D01*
X248614Y496360D01*
X248797Y496250D01*
X249020Y496160D01*
X249284Y496090D01*
X249589Y496040D01*
X249934Y496010D01*
X250319Y496000D01*
Y494000D01*
X249934Y493990D01*
X249589Y493960D01*
X249284Y493910D01*
X249020Y493840D01*
X248797Y493750D01*
X248614Y493640D01*
X248472Y493510D01*
X248370Y493360D01*
X248309Y493190D01*
X248289Y493000D01*
Y497000D01*
X248309Y496810D01*
D02*
G37*
G36*
X175211Y493000D02*
X175191Y493190D01*
X175130Y493360D01*
X175028Y493510D01*
X174886Y493640D01*
X174703Y493750D01*
X174480Y493840D01*
X174216Y493910D01*
X173911Y493960D01*
X173566Y493990D01*
X173181Y494000D01*
Y496000D01*
X173566Y496010D01*
X173911Y496040D01*
X174216Y496090D01*
X174480Y496160D01*
X174703Y496250D01*
X174886Y496360D01*
X175028Y496490D01*
X175130Y496640D01*
X175191Y496810D01*
X175211Y497000D01*
Y493000D01*
D02*
G37*
G36*
X299061Y487800D02*
X299041Y487990D01*
X298980Y488160D01*
X298878Y488310D01*
X298736Y488440D01*
X298553Y488550D01*
X298330Y488640D01*
X298066Y488710D01*
X297761Y488760D01*
X297416Y488790D01*
X297031Y488800D01*
Y490800D01*
X297416Y490810D01*
X297761Y490840D01*
X298066Y490890D01*
X298330Y490960D01*
X298553Y491050D01*
X298736Y491160D01*
X298878Y491290D01*
X298980Y491440D01*
X299041Y491610D01*
X299061Y491800D01*
Y487800D01*
D02*
G37*
G36*
X284709Y491610D02*
X284770Y491440D01*
X284872Y491290D01*
X285014Y491160D01*
X285197Y491050D01*
X285420Y490960D01*
X285684Y490890D01*
X285989Y490840D01*
X286334Y490810D01*
X286719Y490800D01*
Y488800D01*
X286334Y488790D01*
X285989Y488760D01*
X285684Y488710D01*
X285420Y488640D01*
X285197Y488550D01*
X285014Y488440D01*
X284872Y488310D01*
X284770Y488160D01*
X284709Y487990D01*
X284689Y487800D01*
Y491800D01*
X284709Y491610D01*
D02*
G37*
G36*
X190709Y490310D02*
X190770Y490140D01*
X190872Y489990D01*
X191014Y489860D01*
X191197Y489750D01*
X191420Y489660D01*
X191684Y489590D01*
X191989Y489540D01*
X192334Y489510D01*
X192719Y489500D01*
Y487500D01*
X192334Y487490D01*
X191989Y487460D01*
X191684Y487410D01*
X191420Y487340D01*
X191197Y487250D01*
X191014Y487140D01*
X190872Y487010D01*
X190770Y486860D01*
X190709Y486690D01*
X190689Y486500D01*
Y490500D01*
X190709Y490310D01*
D02*
G37*
G36*
X157946Y484782D02*
X157570Y484391D01*
X156971Y483682D01*
X156749Y483363D01*
X156579Y483069D01*
X156460Y482798D01*
X156393Y482551D01*
X156377Y482328D01*
X156414Y482129D01*
X156502Y481954D01*
X154204Y485252D01*
X154334Y485119D01*
X154499Y485048D01*
X154697Y485039D01*
X154929Y485091D01*
X155195Y485205D01*
X155495Y485380D01*
X155828Y485617D01*
X156196Y485915D01*
X157032Y486696D01*
X157946Y484782D01*
D02*
G37*
G36*
X261311Y484000D02*
X261291Y484190D01*
X261230Y484360D01*
X261128Y484510D01*
X260986Y484640D01*
X260803Y484750D01*
X260580Y484840D01*
X260316Y484910D01*
X260011Y484960D01*
X259666Y484990D01*
X259280Y485000D01*
Y487000D01*
X259666Y487010D01*
X260011Y487040D01*
X260316Y487090D01*
X260580Y487160D01*
X260803Y487250D01*
X260986Y487360D01*
X261128Y487490D01*
X261230Y487640D01*
X261291Y487810D01*
X261311Y488000D01*
Y484000D01*
D02*
G37*
G36*
X281560Y484041D02*
X281390Y483980D01*
X281240Y483878D01*
X281110Y483736D01*
X281000Y483553D01*
X280910Y483330D01*
X280840Y483066D01*
X280790Y482761D01*
X280760Y482416D01*
X280750Y482030D01*
X278750D01*
X278740Y482416D01*
X278710Y482761D01*
X278660Y483066D01*
X278590Y483330D01*
X278500Y483553D01*
X278390Y483736D01*
X278260Y483878D01*
X278110Y483980D01*
X277940Y484041D01*
X277750Y484061D01*
X281750D01*
X281560Y484041D01*
D02*
G37*
G36*
X232811Y480000D02*
X232791Y480190D01*
X232730Y480360D01*
X232628Y480510D01*
X232486Y480640D01*
X232303Y480750D01*
X232080Y480840D01*
X231816Y480910D01*
X231511Y480960D01*
X231166Y480990D01*
X230781Y481000D01*
Y483000D01*
X231166Y483010D01*
X231511Y483040D01*
X231816Y483090D01*
X232080Y483160D01*
X232303Y483250D01*
X232486Y483360D01*
X232628Y483490D01*
X232730Y483640D01*
X232791Y483810D01*
X232811Y484000D01*
Y480000D01*
D02*
G37*
G36*
X151593Y479343D02*
X150562Y479313D01*
Y481312D01*
X151623Y481343D01*
X151593Y479343D01*
D02*
G37*
G36*
X267239Y477810D02*
X267299Y477640D01*
X267400Y477490D01*
X267540Y477360D01*
X267719Y477250D01*
X267939Y477160D01*
X268200Y477090D01*
X268500Y477040D01*
X268839Y477010D01*
X269219Y477000D01*
Y475000D01*
X268839Y474990D01*
X268500Y474960D01*
X268200Y474910D01*
X267939Y474840D01*
X267719Y474750D01*
X267540Y474640D01*
X267400Y474510D01*
X267299Y474360D01*
X267239Y474190D01*
X267220Y474000D01*
Y478000D01*
X267239Y477810D01*
D02*
G37*
G36*
X232811Y473500D02*
X232791Y473690D01*
X232730Y473860D01*
X232628Y474010D01*
X232486Y474140D01*
X232303Y474250D01*
X232080Y474340D01*
X231816Y474410D01*
X231511Y474460D01*
X231166Y474490D01*
X230781Y474500D01*
Y476500D01*
X231166Y476510D01*
X231511Y476540D01*
X231816Y476590D01*
X232080Y476660D01*
X232303Y476750D01*
X232486Y476860D01*
X232628Y476990D01*
X232730Y477140D01*
X232791Y477310D01*
X232811Y477500D01*
Y473500D01*
D02*
G37*
G36*
X190709Y477310D02*
X190770Y477140D01*
X190872Y476990D01*
X191014Y476860D01*
X191197Y476750D01*
X191420Y476660D01*
X191684Y476590D01*
X191989Y476540D01*
X192334Y476510D01*
X192719Y476500D01*
Y474500D01*
X192334Y474490D01*
X191989Y474460D01*
X191684Y474410D01*
X191420Y474340D01*
X191197Y474250D01*
X191014Y474140D01*
X190872Y474010D01*
X190770Y473860D01*
X190709Y473690D01*
X190689Y473500D01*
Y477500D01*
X190709Y477310D01*
D02*
G37*
G36*
X175211Y473500D02*
X175191Y473690D01*
X175130Y473860D01*
X175028Y474010D01*
X174886Y474140D01*
X174703Y474250D01*
X174480Y474340D01*
X174216Y474410D01*
X173911Y474460D01*
X173566Y474490D01*
X173181Y474500D01*
Y476500D01*
X173566Y476510D01*
X173911Y476540D01*
X174216Y476590D01*
X174480Y476660D01*
X174703Y476750D01*
X174886Y476860D01*
X175028Y476990D01*
X175130Y477140D01*
X175191Y477310D01*
X175211Y477500D01*
Y473500D01*
D02*
G37*
G36*
X248311Y477060D02*
X248373Y476890D01*
X248475Y476740D01*
X248618Y476610D01*
X248801Y476500D01*
X249024Y476410D01*
X249287Y476340D01*
X249591Y476290D01*
X249935Y476260D01*
X250319Y476250D01*
Y474250D01*
X249939Y474242D01*
X249300Y474181D01*
X249039Y474127D01*
X248820Y474058D01*
X248640Y473973D01*
X248500Y473873D01*
X248400Y473758D01*
X248340Y473627D01*
X248319Y473480D01*
X248289Y477250D01*
X248311Y477060D01*
D02*
G37*
G36*
X248309Y470810D02*
X248370Y470640D01*
X248472Y470490D01*
X248614Y470360D01*
X248797Y470250D01*
X249020Y470160D01*
X249284Y470090D01*
X249589Y470040D01*
X249934Y470010D01*
X250319Y470000D01*
Y468000D01*
X249934Y467990D01*
X249589Y467960D01*
X249284Y467910D01*
X249020Y467840D01*
X248797Y467750D01*
X248614Y467640D01*
X248472Y467510D01*
X248370Y467360D01*
X248309Y467190D01*
X248289Y467000D01*
Y471000D01*
X248309Y470810D01*
D02*
G37*
G36*
X175211Y467000D02*
X175191Y467190D01*
X175130Y467360D01*
X175028Y467510D01*
X174886Y467640D01*
X174703Y467750D01*
X174480Y467840D01*
X174216Y467910D01*
X173911Y467960D01*
X173566Y467990D01*
X173181Y468000D01*
Y470000D01*
X173566Y470010D01*
X173911Y470040D01*
X174216Y470090D01*
X174480Y470160D01*
X174703Y470250D01*
X174886Y470360D01*
X175028Y470490D01*
X175130Y470640D01*
X175191Y470810D01*
X175211Y471000D01*
Y467000D01*
D02*
G37*
G36*
X200797Y462122D02*
X200779Y462128D01*
X200734Y462133D01*
X200663Y462138D01*
X199404Y462154D01*
Y464154D01*
X199565Y464155D01*
X200042Y464184D01*
X200119Y464197D01*
X200180Y464212D01*
X200223Y464230D01*
X200250Y464250D01*
X200261Y464273D01*
X200797Y462122D01*
D02*
G37*
G36*
X285311Y460500D02*
X285291Y460690D01*
X285230Y460860D01*
X285128Y461010D01*
X284986Y461140D01*
X284803Y461250D01*
X284580Y461340D01*
X284316Y461410D01*
X284011Y461460D01*
X283666Y461490D01*
X283281Y461500D01*
Y463500D01*
X283666Y463510D01*
X284011Y463540D01*
X284316Y463590D01*
X284580Y463660D01*
X284803Y463750D01*
X284986Y463860D01*
X285128Y463990D01*
X285230Y464140D01*
X285291Y464310D01*
X285311Y464500D01*
Y460500D01*
D02*
G37*
G36*
X277709Y464310D02*
X277770Y464140D01*
X277872Y463990D01*
X278014Y463860D01*
X278197Y463750D01*
X278420Y463660D01*
X278684Y463590D01*
X278988Y463540D01*
X279334Y463510D01*
X279720Y463500D01*
Y461500D01*
X279334Y461490D01*
X278988Y461460D01*
X278684Y461410D01*
X278420Y461340D01*
X278197Y461250D01*
X278014Y461140D01*
X277872Y461010D01*
X277770Y460860D01*
X277709Y460690D01*
X277689Y460500D01*
Y464500D01*
X277709Y464310D01*
D02*
G37*
G36*
X262811Y460500D02*
X262791Y460690D01*
X262730Y460860D01*
X262628Y461010D01*
X262486Y461140D01*
X262303Y461250D01*
X262080Y461340D01*
X261816Y461410D01*
X261511Y461460D01*
X261166Y461490D01*
X260781Y461500D01*
Y463500D01*
X261166Y463510D01*
X261511Y463540D01*
X261816Y463590D01*
X262080Y463660D01*
X262303Y463750D01*
X262486Y463860D01*
X262628Y463990D01*
X262730Y464140D01*
X262791Y464310D01*
X262811Y464500D01*
Y460500D01*
D02*
G37*
G36*
X248309Y464310D02*
X248370Y464140D01*
X248472Y463990D01*
X248614Y463860D01*
X248797Y463750D01*
X249020Y463660D01*
X249284Y463590D01*
X249589Y463540D01*
X249934Y463510D01*
X250319Y463500D01*
Y461500D01*
X249934Y461490D01*
X249589Y461460D01*
X249284Y461410D01*
X249020Y461340D01*
X248797Y461250D01*
X248614Y461140D01*
X248472Y461010D01*
X248370Y460860D01*
X248309Y460690D01*
X248289Y460500D01*
Y464500D01*
X248309Y464310D01*
D02*
G37*
G36*
X175211Y460500D02*
X175191Y460690D01*
X175130Y460860D01*
X175028Y461010D01*
X174886Y461140D01*
X174703Y461250D01*
X174480Y461340D01*
X174216Y461410D01*
X173911Y461460D01*
X173566Y461490D01*
X173181Y461500D01*
Y463500D01*
X173566Y463510D01*
X173911Y463540D01*
X174216Y463590D01*
X174480Y463660D01*
X174703Y463750D01*
X174886Y463860D01*
X175028Y463990D01*
X175130Y464140D01*
X175191Y464310D01*
X175211Y464500D01*
Y460500D01*
D02*
G37*
G36*
X190738Y457888D02*
X190794Y457771D01*
X190887Y457667D01*
X191017Y457577D01*
X191184Y457501D01*
X191389Y457439D01*
X191630Y457391D01*
X191909Y457356D01*
X192225Y457335D01*
X192578Y457328D01*
Y455328D01*
X192221Y455320D01*
X191901Y455294D01*
X191618Y455251D01*
X191373Y455191D01*
X191165Y455114D01*
X190995Y455019D01*
X190862Y454908D01*
X190767Y454779D01*
X190709Y454633D01*
X190689Y454469D01*
X190720Y458019D01*
X190738Y457888D01*
D02*
G37*
G36*
X248309Y457810D02*
X248370Y457640D01*
X248472Y457490D01*
X248614Y457360D01*
X248797Y457250D01*
X249020Y457160D01*
X249284Y457090D01*
X249589Y457040D01*
X249934Y457010D01*
X250319Y457000D01*
Y455000D01*
X249934Y454990D01*
X249589Y454960D01*
X249284Y454910D01*
X249020Y454840D01*
X248797Y454750D01*
X248614Y454640D01*
X248472Y454510D01*
X248370Y454360D01*
X248309Y454190D01*
X248289Y454000D01*
Y458000D01*
X248309Y457810D01*
D02*
G37*
G36*
X85810Y450291D02*
X85640Y450230D01*
X85490Y450128D01*
X85360Y449986D01*
X85250Y449803D01*
X85160Y449580D01*
X85090Y449316D01*
X85040Y449011D01*
X85010Y448666D01*
X85000Y448280D01*
X83000D01*
X82990Y448666D01*
X82960Y449011D01*
X82910Y449316D01*
X82840Y449580D01*
X82750Y449803D01*
X82640Y449986D01*
X82510Y450128D01*
X82360Y450230D01*
X82190Y450291D01*
X82000Y450311D01*
X86000D01*
X85810Y450291D01*
D02*
G37*
G36*
X190709Y451310D02*
X190770Y451140D01*
X190872Y450990D01*
X191014Y450860D01*
X191197Y450750D01*
X191420Y450660D01*
X191684Y450590D01*
X191989Y450540D01*
X192334Y450510D01*
X192719Y450500D01*
Y448500D01*
X192334Y448490D01*
X191989Y448460D01*
X191684Y448410D01*
X191420Y448340D01*
X191197Y448250D01*
X191014Y448140D01*
X190872Y448010D01*
X190770Y447860D01*
X190709Y447690D01*
X190689Y447500D01*
Y451500D01*
X190709Y451310D01*
D02*
G37*
G36*
X166771Y464671D02*
X166759Y464663D01*
X166759Y464663D01*
X165587Y463491D01*
X164924Y462499D01*
X164691Y461328D01*
X164691Y461328D01*
Y454017D01*
X157311Y446636D01*
X156907Y446717D01*
X154761Y446290D01*
X152942Y445074D01*
X151726Y443255D01*
X151312Y441171D01*
X151208Y441110D01*
X150472Y441119D01*
X149314Y441573D01*
X148887Y443719D01*
X147671Y445538D01*
X146765Y446144D01*
Y447939D01*
X164767Y465941D01*
X166386D01*
X166771Y464671D01*
D02*
G37*
G36*
X262966Y449962D02*
X263734Y449304D01*
X264068Y449068D01*
X264368Y448892D01*
X264634Y448779D01*
X264866Y448727D01*
X265064Y448736D01*
X265228Y448807D01*
X265359Y448939D01*
X263061Y445641D01*
X263142Y445823D01*
X263157Y446044D01*
X263106Y446302D01*
X262990Y446598D01*
X262807Y446933D01*
X262559Y447305D01*
X262245Y447716D01*
X261420Y448652D01*
X260909Y449177D01*
X262530Y450384D01*
X262966Y449962D01*
D02*
G37*
G36*
X285061Y444000D02*
X285041Y444190D01*
X284980Y444360D01*
X284878Y444510D01*
X284736Y444640D01*
X284553Y444750D01*
X284330Y444840D01*
X284066Y444910D01*
X283761Y444960D01*
X283416Y444990D01*
X283030Y445000D01*
Y447000D01*
X283416Y447010D01*
X283761Y447040D01*
X284066Y447090D01*
X284330Y447160D01*
X284553Y447250D01*
X284736Y447360D01*
X284878Y447490D01*
X284980Y447640D01*
X285041Y447810D01*
X285061Y448000D01*
Y444000D01*
D02*
G37*
G36*
X277959Y447810D02*
X278020Y447640D01*
X278122Y447490D01*
X278264Y447360D01*
X278447Y447250D01*
X278670Y447160D01*
X278934Y447090D01*
X279239Y447040D01*
X279584Y447010D01*
X279970Y447000D01*
Y445000D01*
X279584Y444990D01*
X279239Y444960D01*
X278934Y444910D01*
X278670Y444840D01*
X278447Y444750D01*
X278264Y444640D01*
X278122Y444510D01*
X278020Y444360D01*
X277959Y444190D01*
X277939Y444000D01*
Y448000D01*
X277959Y447810D01*
D02*
G37*
G36*
X125560Y439279D02*
X125590Y438892D01*
X125639Y438551D01*
X125709Y438256D01*
X125798Y438006D01*
X125907Y437801D01*
X126036Y437642D01*
X126184Y437528D01*
X126353Y437460D01*
X126541Y437438D01*
X122559D01*
X122747Y437460D01*
X122916Y437528D01*
X123064Y437642D01*
X123193Y437801D01*
X123302Y438006D01*
X123391Y438256D01*
X123461Y438551D01*
X123510Y438892D01*
X123540Y439279D01*
X123550Y439711D01*
X125550D01*
X125560Y439279D01*
D02*
G37*
G36*
X229430Y437719D02*
X229456Y437398D01*
X229499Y437115D01*
X229559Y436869D01*
X229636Y436661D01*
X229731Y436491D01*
X229842Y436359D01*
X229971Y436265D01*
X230117Y436208D01*
X230280Y436189D01*
X226563D01*
X226726Y436208D01*
X226872Y436265D01*
X227001Y436359D01*
X227112Y436491D01*
X227207Y436661D01*
X227284Y436869D01*
X227344Y437115D01*
X227387Y437398D01*
X227413Y437719D01*
X227422Y438078D01*
X229422D01*
X229430Y437719D01*
D02*
G37*
G36*
X85010Y431484D02*
X85040Y431138D01*
X85090Y430834D01*
X85160Y430570D01*
X85250Y430347D01*
X85360Y430164D01*
X85490Y430022D01*
X85640Y429920D01*
X85810Y429859D01*
X86000Y429839D01*
X82000D01*
X82190Y429859D01*
X82360Y429920D01*
X82510Y430022D01*
X82640Y430164D01*
X82750Y430347D01*
X82840Y430570D01*
X82910Y430834D01*
X82960Y431138D01*
X82990Y431484D01*
X83000Y431870D01*
X85000D01*
X85010Y431484D01*
D02*
G37*
G36*
X203459Y432810D02*
X203520Y432640D01*
X203622Y432490D01*
X203764Y432360D01*
X203947Y432250D01*
X204170Y432160D01*
X204434Y432090D01*
X204739Y432040D01*
X205084Y432010D01*
X205469Y432000D01*
Y430000D01*
X205084Y429990D01*
X204739Y429960D01*
X204434Y429910D01*
X204170Y429840D01*
X203947Y429750D01*
X203764Y429640D01*
X203622Y429510D01*
X203520Y429360D01*
X203459Y429190D01*
X203439Y429000D01*
Y433000D01*
X203459Y432810D01*
D02*
G37*
G36*
X263061Y428250D02*
X263041Y428440D01*
X262980Y428610D01*
X262878Y428760D01*
X262736Y428890D01*
X262553Y429000D01*
X262330Y429090D01*
X262066Y429160D01*
X261761Y429210D01*
X261416Y429240D01*
X261031Y429250D01*
Y431250D01*
X261416Y431260D01*
X261761Y431290D01*
X262066Y431340D01*
X262330Y431410D01*
X262553Y431500D01*
X262736Y431610D01*
X262878Y431740D01*
X262980Y431890D01*
X263041Y432060D01*
X263061Y432250D01*
Y428250D01*
D02*
G37*
G36*
X231310Y426260D02*
X231140Y426200D01*
X230990Y426101D01*
X230860Y425961D01*
X230750Y425780D01*
X230660Y425560D01*
X230590Y425300D01*
X230540Y425000D01*
X230510Y424660D01*
X230500Y424281D01*
X228500D01*
X228490Y424660D01*
X228460Y425000D01*
X228410Y425300D01*
X228340Y425560D01*
X228250Y425780D01*
X228140Y425961D01*
X228010Y426101D01*
X227860Y426200D01*
X227690Y426260D01*
X227500Y426281D01*
X231500D01*
X231310Y426260D01*
D02*
G37*
G36*
X201310Y426291D02*
X201140Y426230D01*
X200990Y426128D01*
X200860Y425986D01*
X200750Y425803D01*
X200660Y425580D01*
X200590Y425316D01*
X200540Y425011D01*
X200510Y424666D01*
X200500Y424281D01*
X198500D01*
X198490Y424666D01*
X198460Y425011D01*
X198410Y425316D01*
X198340Y425580D01*
X198250Y425803D01*
X198140Y425986D01*
X198010Y426128D01*
X197860Y426230D01*
X197690Y426291D01*
X197500Y426311D01*
X201500D01*
X201310Y426291D01*
D02*
G37*
G36*
X317215Y456750D02*
X316960Y456660D01*
X316735Y456511D01*
X316540Y456301D01*
X316375Y456031D01*
X316240Y455700D01*
X316135Y455311D01*
X316060Y454860D01*
X316015Y454351D01*
X316009Y454123D01*
X316015Y453894D01*
X316060Y453378D01*
X316135Y452924D01*
X316240Y452530D01*
X316375Y452197D01*
X316540Y451924D01*
X316735Y451712D01*
X316960Y451560D01*
X317215Y451469D01*
X317500Y451439D01*
X311500D01*
X311785Y451469D01*
X312040Y451560D01*
X312265Y451712D01*
X312460Y451924D01*
X312625Y452197D01*
X312760Y452530D01*
X312865Y452924D01*
X312940Y453378D01*
X312985Y453894D01*
X312991Y454123D01*
X312985Y454351D01*
X312940Y454860D01*
X312865Y455311D01*
X312760Y455700D01*
X312625Y456031D01*
X312460Y456301D01*
X312265Y456511D01*
X312040Y456660D01*
X311785Y456750D01*
X311500Y456781D01*
X317500D01*
X317215Y456750D01*
D02*
G37*
%LPC*%
G36*
X305500Y356000D02*
X279500D01*
Y353086D01*
X273833D01*
Y356000D01*
X247833D01*
Y330000D01*
X273833D01*
Y332914D01*
X279500D01*
Y330000D01*
X305500D01*
Y356000D01*
D02*
G37*
G36*
X242167D02*
X216167D01*
Y353086D01*
X210500D01*
Y356000D01*
X184500D01*
Y330000D01*
X210500D01*
Y332914D01*
X216167D01*
Y330000D01*
X242167D01*
Y356000D01*
D02*
G37*
G36*
X57000Y358797D02*
X54050Y358409D01*
X51301Y357271D01*
X48941Y355459D01*
X47130Y353099D01*
X45991Y350350D01*
X45603Y347400D01*
X45991Y344450D01*
X47130Y341701D01*
X48941Y339341D01*
X51301Y337529D01*
X54050Y336391D01*
X57000Y336003D01*
X59950Y336391D01*
X62699Y337529D01*
X65059Y339341D01*
X66871Y341701D01*
X68009Y344450D01*
X68397Y347400D01*
X68009Y350350D01*
X66871Y353099D01*
X65059Y355459D01*
X62699Y357271D01*
X59950Y358409D01*
X57000Y358797D01*
D02*
G37*
G36*
X31600D02*
X28650Y358409D01*
X25901Y357271D01*
X23541Y355459D01*
X21730Y353099D01*
X20591Y350350D01*
X20203Y347400D01*
X20591Y344450D01*
X21730Y341701D01*
X23541Y339341D01*
X25901Y337529D01*
X28650Y336391D01*
X31600Y336003D01*
X34550Y336391D01*
X37299Y337529D01*
X39659Y339341D01*
X41471Y341701D01*
X42609Y344450D01*
X42997Y347400D01*
X42609Y350350D01*
X41471Y353099D01*
X39659Y355459D01*
X37299Y357271D01*
X34550Y358409D01*
X31600Y358797D01*
D02*
G37*
G36*
X273833Y324000D02*
X247833D01*
Y321086D01*
X242167D01*
Y324000D01*
X216167D01*
Y298000D01*
X242167D01*
Y300914D01*
X247833D01*
Y298000D01*
X273833D01*
Y324000D01*
D02*
G37*
G36*
X305500D02*
X279500D01*
Y298000D01*
X286414D01*
Y267394D01*
X285783Y265872D01*
X285405Y263000D01*
X285783Y260128D01*
X286892Y257453D01*
X288655Y255155D01*
X290953Y253391D01*
X293628Y252283D01*
X296500Y251905D01*
X299372Y252283D01*
X302048Y253391D01*
X304345Y255155D01*
X306108Y257453D01*
X307217Y260128D01*
X307595Y263000D01*
X307217Y265872D01*
X306586Y267394D01*
Y307000D01*
X306243Y309610D01*
X305500Y311403D01*
Y324000D01*
D02*
G37*
G36*
X142000Y300250D02*
X116000D01*
Y274250D01*
Y251750D01*
X142000D01*
Y274250D01*
Y300250D01*
D02*
G37*
G36*
X296500Y214095D02*
X293628Y213717D01*
X290953Y212609D01*
X288655Y210845D01*
X286892Y208547D01*
X285783Y205872D01*
X285405Y203000D01*
X285783Y200128D01*
X286892Y197453D01*
X288655Y195155D01*
X290953Y193391D01*
X293628Y192283D01*
X296500Y191905D01*
X299372Y192283D01*
X302048Y193391D01*
X304345Y195155D01*
X306108Y197453D01*
X307217Y200128D01*
X307595Y203000D01*
X307217Y205872D01*
X306108Y208547D01*
X304345Y210845D01*
X302048Y212609D01*
X299372Y213717D01*
X296500Y214095D01*
D02*
G37*
G36*
X196500Y278073D02*
X193559Y277783D01*
X190732Y276925D01*
X188126Y275532D01*
X185842Y273658D01*
X184736Y272310D01*
X179000D01*
X177173Y272070D01*
X175470Y271364D01*
X174008Y270242D01*
X143575Y239810D01*
X142000D01*
Y245750D01*
X116000D01*
Y219750D01*
X142000D01*
Y225690D01*
X146500D01*
X148327Y225930D01*
X150030Y226635D01*
X151493Y227758D01*
X180254Y256519D01*
X181427Y256033D01*
Y203000D01*
Y186993D01*
X176092Y181658D01*
X174218Y179374D01*
X172825Y176768D01*
X171967Y173941D01*
X171677Y171000D01*
Y133823D01*
X144959D01*
X142073Y136709D01*
Y196000D01*
X141783Y198941D01*
X141550Y199708D01*
Y210550D01*
X130709D01*
X129941Y210783D01*
X127000Y211073D01*
X124059Y210783D01*
X123292Y210550D01*
X112450D01*
Y207615D01*
X111180Y206989D01*
X108938Y208709D01*
X105398Y210175D01*
X101600Y210676D01*
X97802Y210175D01*
X94262Y208709D01*
X91223Y206377D01*
X89535Y204177D01*
X88265D01*
X86577Y206377D01*
X83538Y208709D01*
X79998Y210175D01*
X76200Y210676D01*
X72402Y210175D01*
X68862Y208709D01*
X65823Y206377D01*
X63491Y203338D01*
X62024Y199798D01*
X61525Y196000D01*
X62024Y192202D01*
X63491Y188662D01*
X65823Y185623D01*
X68862Y183291D01*
X72402Y181824D01*
X76200Y181325D01*
X79998Y181824D01*
X83538Y183291D01*
X86577Y185623D01*
X88265Y187822D01*
X89535D01*
X91223Y185623D01*
X94262Y183291D01*
X97802Y181824D01*
X101600Y181325D01*
X105398Y181824D01*
X108938Y183291D01*
X110788Y184711D01*
X111927Y184149D01*
Y130466D01*
X112217Y127525D01*
X113075Y124698D01*
X114468Y122092D01*
X116342Y119808D01*
X128058Y108092D01*
X130342Y106218D01*
X132948Y104825D01*
X135775Y103967D01*
X138716Y103677D01*
X171677D01*
Y72000D01*
X171250D01*
Y41000D01*
X202250D01*
Y72000D01*
X201823D01*
Y118750D01*
Y164757D01*
X207158Y170092D01*
X209032Y172376D01*
X210425Y174982D01*
X211283Y177810D01*
X211573Y180750D01*
X211573Y180750D01*
Y203000D01*
Y263000D01*
X211283Y265940D01*
X210425Y268768D01*
X209032Y271374D01*
X207158Y273658D01*
X204874Y275532D01*
X202268Y276925D01*
X199440Y277783D01*
X196500Y278073D01*
D02*
G37*
G36*
X300770Y63240D02*
Y51020D01*
X312990D01*
X312691Y53285D01*
X311327Y56578D01*
X309157Y59407D01*
X306328Y61577D01*
X303035Y62941D01*
X300770Y63240D01*
D02*
G37*
G36*
X298230D02*
X295965Y62941D01*
X292672Y61577D01*
X289843Y59407D01*
X287673Y56578D01*
X286308Y53285D01*
X286010Y51020D01*
X298230D01*
Y63240D01*
D02*
G37*
G36*
X102500Y72000D02*
X71500D01*
Y41000D01*
X102500D01*
Y72000D01*
D02*
G37*
G36*
X312990Y48480D02*
X300770D01*
Y36260D01*
X303035Y36558D01*
X306328Y37923D01*
X309157Y40093D01*
X311327Y42922D01*
X312691Y46215D01*
X312990Y48480D01*
D02*
G37*
G36*
X298230D02*
X286010D01*
X286308Y46215D01*
X287673Y42922D01*
X289843Y40093D01*
X292672Y37923D01*
X295965Y36558D01*
X298230Y36260D01*
Y48480D01*
D02*
G37*
%LPD*%
G36*
X132620Y279271D02*
X132280Y279150D01*
X131980Y278948D01*
X131720Y278666D01*
X131500Y278303D01*
X131320Y277860D01*
X131180Y277336D01*
X131080Y276731D01*
X131020Y276046D01*
X131019Y276000D01*
X131020Y275954D01*
X131080Y275268D01*
X131180Y274664D01*
X131320Y274140D01*
X131500Y273697D01*
X131720Y273334D01*
X131980Y273052D01*
X132280Y272850D01*
X132620Y272729D01*
X133000Y272689D01*
X125000D01*
X125380Y272729D01*
X125720Y272850D01*
X126020Y273052D01*
X126280Y273334D01*
X126500Y273697D01*
X126680Y274140D01*
X126820Y274664D01*
X126920Y275268D01*
X126980Y275954D01*
X126981Y276000D01*
X126980Y276046D01*
X126920Y276731D01*
X126820Y277336D01*
X126680Y277860D01*
X126500Y278303D01*
X126280Y278666D01*
X126020Y278948D01*
X125720Y279150D01*
X125380Y279271D01*
X125000Y279311D01*
X133000D01*
X132620Y279271D01*
D02*
G37*
G36*
X136979Y236370D02*
X137100Y236030D01*
X137302Y235730D01*
X137584Y235470D01*
X137947Y235250D01*
X138390Y235070D01*
X138914Y234930D01*
X139518Y234830D01*
X140204Y234770D01*
X140969Y234750D01*
Y230750D01*
X140204Y230730D01*
X139518Y230670D01*
X138914Y230570D01*
X138390Y230430D01*
X137947Y230250D01*
X137584Y230030D01*
X137302Y229770D01*
X137100Y229470D01*
X136979Y229130D01*
X136939Y228750D01*
Y236750D01*
X136979Y236370D01*
D02*
G37*
D11*
X224750Y441750D02*
Y474328D01*
X228422Y432328D02*
Y438078D01*
Y432328D02*
X229500Y431250D01*
X224750Y441750D02*
X228422Y438078D01*
X207750Y501250D02*
Y517000D01*
X227000Y482000D02*
X240550D01*
X207750Y501250D02*
X227000Y482000D01*
X240800Y475250D02*
X256078D01*
X258422Y486000D02*
X264250D01*
X256078Y475250D02*
X257250Y476422D01*
Y484828D01*
X258422Y486000D01*
X124550Y424600D02*
Y454300D01*
X154062Y481813D02*
Y482313D01*
X152563Y480312D02*
X154062Y481813D01*
X150562Y480312D02*
X152563D01*
X124550Y454300D02*
X150562Y480312D01*
X154062Y482313D02*
X159125Y487375D01*
X170875Y475500D02*
X182950D01*
X166063Y480312D02*
X170875Y475500D01*
X165562Y480312D02*
X166063D01*
X164062Y481813D02*
X165562Y480312D01*
X164062Y481813D02*
Y482313D01*
X159125Y487375D02*
X166750Y495000D01*
X168922Y462500D02*
X182950D01*
X167750Y452750D02*
Y461328D01*
X168922Y462500D01*
X156907Y441907D02*
X167750Y452750D01*
X156907Y441109D02*
Y441907D01*
X163500Y469000D02*
X182950D01*
X143706Y441573D02*
Y449206D01*
X163500Y469000D01*
X182950Y456000D02*
X183278Y456328D01*
X192578D01*
X199404Y463154D01*
X202904D01*
X203750Y464000D01*
X124622Y513750D02*
X134872Y524000D01*
X200750D02*
X207750Y517000D01*
X134872Y524000D02*
X200750D01*
X215500Y475500D02*
X220250Y470750D01*
X182950Y475500D02*
X215500D01*
X220250Y432172D02*
Y470750D01*
X213750Y421250D02*
X228328D01*
X219078Y431000D02*
X220250Y432172D01*
X200672Y421250D02*
X213750D01*
X199750Y431000D02*
X219078D01*
X166750Y495000D02*
X182950D01*
X110000Y488750D02*
X143000D01*
X155750Y501500D02*
X182950D01*
X143000Y488750D02*
X155750Y501500D01*
X98422Y497750D02*
X136750D01*
X154500Y515500D02*
X194000D01*
X136750Y497750D02*
X154500Y515500D01*
X199500Y422422D02*
Y431250D01*
Y422422D02*
X200672Y421250D01*
X229500Y422422D02*
Y431250D01*
X228328Y421250D02*
X229500Y422422D01*
X182950Y449500D02*
X204250D01*
X301500Y700650D02*
Y748000D01*
X237000Y812500D02*
X301500Y748000D01*
X270250Y700650D02*
Y729250D01*
X187000Y812500D02*
X270250Y729250D01*
X137000Y775250D02*
Y812500D01*
Y775250D02*
X145750Y766500D01*
X196500D01*
X238776Y724223D01*
Y700650D02*
Y724223D01*
X275500Y446000D02*
X291250D01*
X275250Y462500D02*
X291250D01*
X291500Y462250D01*
X240550Y495000D02*
X255250D01*
X269000Y508750D02*
Y522000D01*
X255250Y495000D02*
X269000Y508750D01*
X253500Y504750D02*
Y521000D01*
X250250Y501500D02*
X253500Y504750D01*
X257250Y469000D02*
X264250Y476000D01*
X264250D02*
X274250D01*
X279750Y481500D02*
Y488000D01*
X274250Y476000D02*
X279750Y481500D01*
X240550Y475500D02*
X240800Y475250D01*
X240550Y501500D02*
X250250D01*
X261000Y430250D02*
X265500D01*
X259000Y432250D02*
X261000Y430250D01*
X259000Y432250D02*
Y438500D01*
X249050Y448450D02*
X259000Y438500D01*
X240550Y449500D02*
X241600Y448450D01*
X249050D01*
X240550Y456000D02*
X255500D01*
X263500Y448000D01*
X264000D01*
X265500Y446500D01*
Y446000D02*
Y446500D01*
X240550Y462500D02*
X265250D01*
X278050Y489800D02*
X306500D01*
X240550Y469000D02*
X257250D01*
X199500Y431250D02*
X199750Y431000D01*
X225922Y475500D02*
X240550D01*
X224750Y474328D02*
X225922Y475500D01*
X84000Y425200D02*
Y452750D01*
X82400Y423600D02*
X84000Y425200D01*
X194000Y515500D02*
X198000Y511500D01*
Y490250D02*
Y511500D01*
X122200Y513750D02*
X124622D01*
X96800D02*
X97250Y513300D01*
Y498922D02*
Y513300D01*
Y498922D02*
X98422Y497750D01*
X182950Y488500D02*
X196250D01*
X198000Y490250D01*
X86000Y464750D02*
X110000Y488750D01*
X84000Y462750D02*
X84500D01*
X86000Y464250D02*
Y464750D01*
X84500Y462750D02*
X86000Y464250D01*
D16*
X301500Y658350D02*
D03*
Y700650D02*
D03*
X270250Y658350D02*
D03*
Y700650D02*
D03*
X238776Y658350D02*
D03*
Y700650D02*
D03*
D17*
X264250Y476000D02*
D03*
Y486000D02*
D03*
X84000Y462750D02*
D03*
Y452750D02*
D03*
D18*
X279750Y504000D02*
D03*
Y488000D02*
D03*
D19*
X164062Y482313D02*
D03*
X154062D02*
D03*
X275500Y430250D02*
D03*
X265500D02*
D03*
X275250Y462500D02*
D03*
X265250D02*
D03*
X275500Y446000D02*
D03*
X265500D02*
D03*
D20*
X24065Y688000D02*
D03*
X95435D02*
D03*
D21*
X235250Y615750D02*
D03*
X270250D02*
D03*
X275500Y553000D02*
D03*
X240500D02*
D03*
D22*
X206750Y533250D02*
D03*
Y556250D02*
D03*
Y579250D02*
D03*
D23*
X148750Y556250D02*
D03*
D24*
X240550Y449500D02*
D03*
Y456000D02*
D03*
Y462500D02*
D03*
Y469000D02*
D03*
Y475500D02*
D03*
Y482000D02*
D03*
Y488500D02*
D03*
Y495000D02*
D03*
Y501500D02*
D03*
Y508000D02*
D03*
X182950D02*
D03*
Y501500D02*
D03*
Y495000D02*
D03*
Y488500D02*
D03*
Y482000D02*
D03*
Y475500D02*
D03*
Y469000D02*
D03*
Y462500D02*
D03*
Y456000D02*
D03*
Y449500D02*
D03*
D25*
X292500Y343000D02*
D03*
Y311000D02*
D03*
X260833D02*
D03*
Y343000D02*
D03*
X229167D02*
D03*
Y311000D02*
D03*
X197500D02*
D03*
Y343000D02*
D03*
X129000Y287250D02*
D03*
Y319250D02*
D03*
Y232750D02*
D03*
Y264750D02*
D03*
D26*
X245500Y431250D02*
D03*
X229500D02*
D03*
X183500D02*
D03*
X199500D02*
D03*
D27*
X291250Y446000D02*
D03*
X314250D02*
D03*
X291500Y462250D02*
D03*
X314500D02*
D03*
D55*
X107250Y598000D02*
D03*
X31250D02*
D03*
D56*
X186750Y56500D02*
Y118750D01*
Y171000D01*
X138716Y118750D02*
X186750D01*
X127000Y130466D02*
Y196000D01*
Y130466D02*
X138716Y118750D01*
X186750Y171000D02*
X196500Y180750D01*
Y203000D01*
Y203000D02*
Y263000D01*
X48716Y20250D02*
X125034D01*
X136750Y31966D02*
Y56500D01*
X125034Y20250D02*
X136750Y31966D01*
X37000D02*
Y56500D01*
Y31966D02*
X48716Y20250D01*
D57*
X314500Y446250D02*
Y462250D01*
X314250Y446000D02*
X314500Y446250D01*
D58*
X236000Y555000D02*
X237250Y556250D01*
X236000Y524750D02*
Y555000D01*
X254150Y591400D02*
X306500D01*
X240500Y577750D02*
X254150Y591400D01*
X240500Y553000D02*
Y577750D01*
X194969Y264531D02*
X196500Y263000D01*
X190876Y264531D02*
X194969D01*
X190157Y265250D02*
X190876Y264531D01*
X179000Y265250D02*
X190157D01*
X129000Y232750D02*
X146500D01*
X179000Y265250D01*
X129000Y264750D02*
Y287250D01*
Y319250D02*
X129250Y319000D01*
X147250D01*
X149950Y321700D02*
Y348400D01*
X147250Y319000D02*
X149950Y321700D01*
D59*
X82400Y347400D02*
X109250Y374250D01*
X163500D01*
X171000Y366750D01*
Y318500D02*
Y366750D01*
Y318500D02*
X178500Y311000D01*
X197500D01*
Y343000D02*
X229167D01*
Y311000D02*
X260833D01*
Y343000D02*
X292500D01*
X296500Y263000D02*
Y307000D01*
X292500Y311000D02*
X296500Y307000D01*
X206750Y579250D02*
X207000Y579500D01*
X220100D01*
X225350Y584750D01*
X225750D01*
X232750Y591750D01*
Y613250D01*
X235250Y615750D01*
X160750Y629850D02*
X174850Y615750D01*
X235250D01*
X136750Y608000D02*
Y674792D01*
X142608Y680650D02*
X160750D01*
X136750Y674792D02*
X142608Y680650D01*
X126750Y598000D02*
X136750Y608000D01*
X107250Y598000D02*
X126750D01*
X73000Y604108D02*
Y633250D01*
X107000Y598250D02*
X107250Y598000D01*
X78858Y598250D02*
X107000D01*
X73000Y604108D02*
X78858Y598250D01*
X95435Y655685D02*
Y688000D01*
X73000Y633250D02*
X95435Y655685D01*
X87000Y781500D02*
Y812500D01*
X24065Y718565D02*
X87000Y781500D01*
X24065Y688000D02*
Y718565D01*
D60*
X206750Y556250D02*
X237250D01*
X148750D02*
X206750D01*
D61*
X299500Y49750D02*
D03*
D62*
X82400Y423600D02*
D03*
D63*
X57000D02*
D03*
X31600D02*
D03*
Y347400D02*
D03*
X57000D02*
D03*
X82400D02*
D03*
D64*
X124550Y424600D02*
D03*
X149950D02*
D03*
Y348400D02*
D03*
D65*
X124550D02*
D03*
D66*
X20600Y513750D02*
D03*
D67*
X46000D02*
D03*
X71400D02*
D03*
X96800D02*
D03*
X122200D02*
D03*
X306500Y515200D02*
D03*
Y540600D02*
D03*
Y566000D02*
D03*
Y591400D02*
D03*
D68*
X160750Y680650D02*
D03*
D69*
Y655250D02*
D03*
Y629850D02*
D03*
D70*
X306500Y489800D02*
D03*
D71*
X76200Y196000D02*
D03*
X101600D02*
D03*
D72*
X127000D02*
D03*
D73*
X196500Y203000D02*
D03*
X296500D02*
D03*
Y263000D02*
D03*
X196500D02*
D03*
D74*
X137000Y812500D02*
D03*
X237000D02*
D03*
X87000Y56500D02*
D03*
X186750D02*
D03*
X37000Y812500D02*
D03*
D75*
X187000D02*
D03*
X287000D02*
D03*
X37000Y56500D02*
D03*
X136750D02*
D03*
X87000Y812500D02*
D03*
D76*
X33750Y524000D02*
D03*
X58750D02*
D03*
X83408Y524007D02*
D03*
X109750Y523500D02*
D03*
Y505500D02*
D03*
X84250Y505000D02*
D03*
X58500D02*
D03*
X34500Y505250D02*
D03*
X314000Y503250D02*
D03*
X313750Y527250D02*
D03*
X313000Y553500D02*
D03*
X312500Y579000D02*
D03*
X290250Y639000D02*
D03*
X290750Y611750D02*
D03*
X279250Y580750D02*
D03*
X159250Y454500D02*
D03*
X201250Y483250D02*
D03*
X213750Y421250D02*
D03*
X209500Y457000D02*
D03*
X203750Y464000D02*
D03*
X204250Y449500D02*
D03*
X269000Y522000D02*
D03*
X253500Y521000D02*
D03*
X261500Y516750D02*
D03*
X236000Y524750D02*
D03*
X156907Y441109D02*
D03*
X143706Y441573D02*
D03*
M02*
