G04*
G04 #@! TF.GenerationSoftware,Altium Limited,Altium Designer,20.0.13 (296)*
G04*
G04 Layer_Color=8388736*
%FSLAX44Y44*%
%MOMM*%
G71*
G01*
G75*
%ADD28R,1.7032X2.3232*%
%ADD29R,0.8032X0.7032*%
%ADD30R,1.2032X1.0032*%
%ADD31R,0.7032X0.8032*%
%ADD32R,2.9972X4.0132*%
%ADD33R,2.2700X3.6200*%
%ADD34R,2.3532X1.1532*%
%ADD35R,2.3532X3.4532*%
%ADD36R,1.7632X0.6132*%
%ADD37R,1.8032X1.8032*%
%ADD38R,1.0032X1.2032*%
%ADD39R,1.3700X1.2200*%
%ADD40C,2.4032*%
%ADD41R,1.4632X1.4632*%
%ADD42C,1.4632*%
%ADD43O,1.5240X2.8448*%
%ADD44R,1.5240X2.8448*%
%ADD45R,1.7032X1.7032*%
%ADD46C,1.7032*%
%ADD47R,1.7112X1.7112*%
%ADD48C,1.7112*%
%ADD49R,1.7032X1.7032*%
%ADD50C,2.1132*%
%ADD51R,2.1132X2.1132*%
%ADD52C,1.4032*%
%ADD53R,2.3032X2.3032*%
%ADD54C,2.3032*%
G36*
X23750Y584500D02*
X4750D01*
Y611500D01*
X23750D01*
Y622500D01*
X38750D01*
Y611500D01*
X50750D01*
Y584500D01*
X38750D01*
Y573500D01*
X23750D01*
Y584500D01*
D02*
G37*
G36*
X99750D02*
X87750D01*
Y611500D01*
X99750D01*
Y622500D01*
X114750D01*
Y611500D01*
X133750D01*
Y584500D01*
X114750D01*
Y573500D01*
X99750D01*
Y584500D01*
D02*
G37*
D28*
X301500Y658350D02*
D03*
Y700650D02*
D03*
X270250Y658350D02*
D03*
Y700650D02*
D03*
X238776Y658350D02*
D03*
Y700650D02*
D03*
D29*
X264250Y476000D02*
D03*
Y486000D02*
D03*
X84000Y462750D02*
D03*
Y452750D02*
D03*
D30*
X279750Y504000D02*
D03*
Y488000D02*
D03*
D31*
X164062Y482313D02*
D03*
X154062D02*
D03*
X275500Y430250D02*
D03*
X265500D02*
D03*
X275250Y462500D02*
D03*
X265250D02*
D03*
X275500Y446000D02*
D03*
X265500D02*
D03*
D32*
X24065Y688000D02*
D03*
X95435D02*
D03*
D33*
X235250Y615750D02*
D03*
X270250D02*
D03*
X275500Y553000D02*
D03*
X240500D02*
D03*
D34*
X206750Y533250D02*
D03*
Y556250D02*
D03*
Y579250D02*
D03*
D35*
X148750Y556250D02*
D03*
D36*
X240550Y449500D02*
D03*
Y456000D02*
D03*
Y462500D02*
D03*
Y469000D02*
D03*
Y475500D02*
D03*
Y482000D02*
D03*
Y488500D02*
D03*
Y495000D02*
D03*
Y501500D02*
D03*
Y508000D02*
D03*
X182950D02*
D03*
Y501500D02*
D03*
Y495000D02*
D03*
Y488500D02*
D03*
Y482000D02*
D03*
Y475500D02*
D03*
Y469000D02*
D03*
Y462500D02*
D03*
Y456000D02*
D03*
Y449500D02*
D03*
D37*
X292500Y343000D02*
D03*
Y311000D02*
D03*
X260833D02*
D03*
Y343000D02*
D03*
X229167D02*
D03*
Y311000D02*
D03*
X197500D02*
D03*
Y343000D02*
D03*
X129000Y287250D02*
D03*
Y319250D02*
D03*
Y232750D02*
D03*
Y264750D02*
D03*
D38*
X245500Y431250D02*
D03*
X229500D02*
D03*
X183500D02*
D03*
X199500D02*
D03*
D39*
X291250Y446000D02*
D03*
X314250D02*
D03*
X291500Y462250D02*
D03*
X314500D02*
D03*
D40*
X299500Y49750D02*
D03*
D41*
X82400Y423600D02*
D03*
D42*
X57000D02*
D03*
X31600D02*
D03*
Y347400D02*
D03*
X57000D02*
D03*
X82400D02*
D03*
D43*
X124550Y424600D02*
D03*
X149950D02*
D03*
Y348400D02*
D03*
D44*
X124550D02*
D03*
D45*
X20600Y513750D02*
D03*
D46*
X46000D02*
D03*
X71400D02*
D03*
X96800D02*
D03*
X122200D02*
D03*
X306500Y515200D02*
D03*
Y540600D02*
D03*
Y566000D02*
D03*
Y591400D02*
D03*
D47*
X160750Y680650D02*
D03*
D48*
Y655250D02*
D03*
Y629850D02*
D03*
D49*
X306500Y489800D02*
D03*
D50*
X76200Y196000D02*
D03*
X101600D02*
D03*
D51*
X127000D02*
D03*
D52*
X196500Y203000D02*
D03*
X296500D02*
D03*
Y263000D02*
D03*
X196500D02*
D03*
D53*
X137000Y812500D02*
D03*
X237000D02*
D03*
X87000Y56500D02*
D03*
X186750D02*
D03*
X37000Y812500D02*
D03*
D54*
X187000D02*
D03*
X287000D02*
D03*
X37000Y56500D02*
D03*
X136750D02*
D03*
X87000Y812500D02*
D03*
M02*
