G04*
G04 #@! TF.GenerationSoftware,Altium Limited,Altium Designer,20.0.13 (296)*
G04*
G04 Layer_Color=32896*
%FSLAX44Y44*%
%MOMM*%
G71*
G01*
G75*
%ADD10C,0.1500*%
%ADD11C,0.2000*%
D10*
X305000Y669500D02*
Y677500D01*
X295250Y669500D02*
X305000D01*
X295250D02*
Y677500D01*
X305000D01*
X290000Y647250D02*
X310500D01*
Y699750D01*
X290000D02*
X310500D01*
X290000Y647250D02*
Y699750D01*
X129000Y244500D02*
Y252500D01*
X119250Y244500D02*
X129000D01*
X119250D02*
Y252500D01*
X129000D01*
X114000Y222250D02*
X134500D01*
Y274750D01*
X114000D02*
X134500D01*
X114000Y222250D02*
Y274750D01*
X129000Y299250D02*
Y307250D01*
X119250Y299250D02*
X129000D01*
X119250D02*
Y307250D01*
X129000D01*
X114000Y277000D02*
X134500D01*
Y329500D01*
X114000D02*
X134500D01*
X114000Y277000D02*
Y329500D01*
X223250Y229000D02*
Y237000D01*
X233000D01*
Y229000D02*
Y237000D01*
X223250Y229000D02*
X233000D01*
X217750Y259250D02*
X238250D01*
X217750Y206750D02*
Y259250D01*
Y206750D02*
X238250D01*
Y259250D01*
X223250Y170750D02*
Y178750D01*
X233000D01*
Y170750D02*
Y178750D01*
X223250Y170750D02*
X233000D01*
X217750Y201000D02*
X238250D01*
X217750Y148500D02*
Y201000D01*
Y148500D02*
X238250D01*
Y201000D01*
X223250Y112500D02*
Y120500D01*
X233000D01*
Y112500D02*
Y120500D01*
X223250Y112500D02*
X233000D01*
X217750Y142750D02*
X238250D01*
X217750Y90250D02*
Y142750D01*
Y90250D02*
X238250D01*
Y142750D01*
X223250Y54250D02*
Y62250D01*
X233000D01*
Y54250D02*
Y62250D01*
X223250Y54250D02*
X233000D01*
X217750Y84500D02*
X238250D01*
X217750Y32000D02*
Y84500D01*
Y32000D02*
X238250D01*
Y84500D01*
X267500Y54250D02*
Y62250D01*
X257750Y54250D02*
X267500D01*
X257750D02*
Y62250D01*
X267500D01*
X252500Y32000D02*
X273000D01*
Y84500D01*
X252500D02*
X273000D01*
X252500Y32000D02*
Y84500D01*
X267500Y112500D02*
Y120500D01*
X257750Y112500D02*
X267500D01*
X257750D02*
Y120500D01*
X267500D01*
X252500Y90250D02*
X273000D01*
Y142750D01*
X252500D02*
X273000D01*
X252500Y90250D02*
Y142750D01*
X258000Y229000D02*
Y237000D01*
X267750D01*
Y229000D02*
Y237000D01*
X258000Y229000D02*
X267750D01*
X252500Y259250D02*
X273000D01*
X252500Y206750D02*
Y259250D01*
Y206750D02*
X273000D01*
Y259250D01*
X258000Y170750D02*
Y178750D01*
X267750D01*
Y170750D02*
Y178750D01*
X258000Y170750D02*
X267750D01*
X252500Y201000D02*
X273000D01*
X252500Y148500D02*
Y201000D01*
Y148500D02*
X273000D01*
Y201000D01*
D11*
X266250Y659250D02*
Y670250D01*
X246250D02*
X266250D01*
X246250Y659250D02*
Y670250D01*
Y659250D02*
X266250D01*
X263750Y694000D02*
X274750D01*
X263750Y674000D02*
Y694000D01*
Y674000D02*
X274750D01*
Y694000D01*
X231250Y694250D02*
X242250D01*
X231250Y674250D02*
Y694250D01*
Y674250D02*
X242250D01*
Y694250D01*
X94752Y237671D02*
X104748D01*
Y242669D01*
X103082Y244335D01*
X99750D01*
X98084Y242669D01*
Y237671D01*
Y241003D02*
X94752Y244335D01*
Y254332D02*
Y247668D01*
X101416Y254332D01*
X103082D01*
X104748Y252666D01*
Y249334D01*
X103082Y247668D01*
X96418Y257665D02*
X94752Y259331D01*
Y262663D01*
X96418Y264329D01*
X103082D01*
X104748Y262663D01*
Y259331D01*
X103082Y257665D01*
X101416D01*
X99750Y259331D01*
Y264329D01*
X93752Y290671D02*
X103748D01*
Y295669D01*
X102082Y297335D01*
X98750D01*
X97084Y295669D01*
Y290671D01*
Y294003D02*
X93752Y297335D01*
Y307332D02*
Y300668D01*
X100416Y307332D01*
X102082D01*
X103748Y305666D01*
Y302334D01*
X102082Y300668D01*
Y310665D02*
X103748Y312331D01*
Y315663D01*
X102082Y317329D01*
X100416D01*
X98750Y315663D01*
X97084Y317329D01*
X95418D01*
X93752Y315663D01*
Y312331D01*
X95418Y310665D01*
X97084D01*
X98750Y312331D01*
X100416Y310665D01*
X102082D01*
X98750Y312331D02*
Y315663D01*
X282002Y161171D02*
X291998D01*
Y166169D01*
X290332Y167835D01*
X287000D01*
X285334Y166169D01*
Y161171D01*
Y164503D02*
X282002Y167835D01*
Y177832D02*
Y171168D01*
X288666Y177832D01*
X290332D01*
X291998Y176166D01*
Y172834D01*
X290332Y171168D01*
X282002Y186163D02*
X291998D01*
X287000Y181164D01*
Y187829D01*
X282002Y105171D02*
X291998D01*
Y110169D01*
X290332Y111835D01*
X287000D01*
X285334Y110169D01*
Y105171D01*
Y108503D02*
X282002Y111835D01*
Y121832D02*
Y115168D01*
X288666Y121832D01*
X290332D01*
X291998Y120166D01*
Y116834D01*
X290332Y115168D01*
Y125164D02*
X291998Y126831D01*
Y130163D01*
X290332Y131829D01*
X288666D01*
X287000Y130163D01*
Y128497D01*
Y130163D01*
X285334Y131829D01*
X283668D01*
X282002Y130163D01*
Y126831D01*
X283668Y125164D01*
X279746Y13252D02*
Y23248D01*
X274748D01*
X273081Y21582D01*
Y18250D01*
X274748Y16584D01*
X279746D01*
X276414D02*
X273081Y13252D01*
X269749D02*
X266417D01*
X268083D01*
Y23248D01*
X269749Y21582D01*
X261419D02*
X259752Y23248D01*
X256420D01*
X254754Y21582D01*
Y19916D01*
X256420Y18250D01*
X254754Y16584D01*
Y14918D01*
X256420Y13252D01*
X259752D01*
X261419Y14918D01*
Y16584D01*
X259752Y18250D01*
X261419Y19916D01*
Y21582D01*
X259752Y18250D02*
X256420D01*
X257752Y270504D02*
X267748D01*
Y275502D01*
X266082Y277169D01*
X262750D01*
X261084Y275502D01*
Y270504D01*
Y273836D02*
X257752Y277169D01*
Y280501D02*
Y283833D01*
Y282167D01*
X267748D01*
X266082Y280501D01*
X267748Y288832D02*
Y295496D01*
X266082D01*
X259418Y288832D01*
X257752D01*
X238246Y14252D02*
Y24248D01*
X233248D01*
X231581Y22582D01*
Y19250D01*
X233248Y17584D01*
X238246D01*
X234914D02*
X231581Y14252D01*
X228249D02*
X224917D01*
X226583D01*
Y24248D01*
X228249Y22582D01*
X214920Y14252D02*
Y24248D01*
X219918Y19250D01*
X213254D01*
X198502Y107004D02*
X208498D01*
Y112002D01*
X206832Y113668D01*
X203500D01*
X201834Y112002D01*
Y107004D01*
Y110336D02*
X198502Y113668D01*
Y117001D02*
Y120333D01*
Y118667D01*
X208498D01*
X206832Y117001D01*
Y125331D02*
X208498Y126998D01*
Y130330D01*
X206832Y131996D01*
X205166D01*
X203500Y130330D01*
Y128664D01*
Y130330D01*
X201834Y131996D01*
X200168D01*
X198502Y130330D01*
Y126998D01*
X200168Y125331D01*
X197002Y161004D02*
X206998D01*
Y166002D01*
X205332Y167668D01*
X202000D01*
X200334Y166002D01*
Y161004D01*
Y164336D02*
X197002Y167668D01*
Y171001D02*
Y174333D01*
Y172667D01*
X206998D01*
X205332Y171001D01*
X197002Y185996D02*
Y179331D01*
X203666Y185996D01*
X205332D01*
X206998Y184330D01*
Y180998D01*
X205332Y179331D01*
X222752Y270170D02*
X232748D01*
Y275169D01*
X231082Y276835D01*
X227750D01*
X226084Y275169D01*
Y270170D01*
Y273502D02*
X222752Y276835D01*
Y280167D02*
Y283499D01*
Y281833D01*
X232748D01*
X231082Y280167D01*
X222752Y288498D02*
Y291830D01*
Y290164D01*
X232748D01*
X231082Y288498D01*
X249036Y702284D02*
Y712281D01*
X244038D01*
X242372Y710615D01*
Y707282D01*
X244038Y705616D01*
X249036D01*
X245704D02*
X242372Y702284D01*
X232375Y712281D02*
X239039D01*
Y707282D01*
X235707Y708949D01*
X234041D01*
X232375Y707282D01*
Y703950D01*
X234041Y702284D01*
X237373D01*
X239039Y703950D01*
X265081Y641752D02*
Y651748D01*
X260082D01*
X258416Y650082D01*
Y646750D01*
X260082Y645084D01*
X265081D01*
X261748D02*
X258416Y641752D01*
X250086D02*
Y651748D01*
X255084Y646750D01*
X248419D01*
X281304Y702030D02*
Y712027D01*
X276306D01*
X274639Y710361D01*
Y707028D01*
X276306Y705362D01*
X281304D01*
X277972D02*
X274639Y702030D01*
X271307Y710361D02*
X269641Y712027D01*
X266309D01*
X264643Y710361D01*
Y708695D01*
X266309Y707028D01*
X267975D01*
X266309D01*
X264643Y705362D01*
Y703696D01*
X266309Y702030D01*
X269641D01*
X271307Y703696D01*
X304460Y707698D02*
Y717695D01*
X299462D01*
X297796Y716029D01*
Y712696D01*
X299462Y711030D01*
X304460D01*
X301128D02*
X297796Y707698D01*
X294463D02*
X291131D01*
X292797D01*
Y717695D01*
X294463Y716029D01*
M02*
