G04*
G04 #@! TF.GenerationSoftware,Altium Limited,Altium Designer,20.0.13 (296)*
G04*
G04 Layer_Color=65535*
%FSLAX44Y44*%
%MOMM*%
G71*
G01*
G75*
%ADD10C,0.1500*%
%ADD11C,0.2000*%
%ADD12C,0.1524*%
%ADD13C,0.6096*%
%ADD14C,0.1270*%
%ADD15C,0.2540*%
D10*
X287763Y511405D02*
G03*
X271850Y511300I-7877J-12168D01*
G01*
X271737Y480295D02*
G03*
X287650Y480400I7877J12168D01*
G01*
X253204Y423237D02*
G03*
X253100Y439150I-12168J7877D01*
G01*
X222095Y439263D02*
G03*
X222200Y423350I12168J-7877D01*
G01*
X175795Y439263D02*
G03*
X175900Y423350I12168J-7877D01*
G01*
X206905Y423237D02*
G03*
X206800Y439150I-12168J7877D01*
G01*
X271750Y480500D02*
Y511250D01*
X287750Y480500D02*
Y511250D01*
X277150Y497400D02*
X282450D01*
X277150Y494600D02*
X282450D01*
X297250Y323000D02*
Y331000D01*
X287500D02*
X297250D01*
X287500Y323000D02*
Y331000D01*
Y323000D02*
X297250D01*
X282250Y353250D02*
X302750D01*
Y300750D02*
Y353250D01*
X282250Y300750D02*
X302750D01*
X282250D02*
Y353250D01*
X256083Y323000D02*
Y331000D01*
Y323000D02*
X265833D01*
Y331000D01*
X256083D02*
X265833D01*
X250583Y300750D02*
X271083D01*
X250583D02*
Y353250D01*
X271083D01*
Y300750D02*
Y353250D01*
X233917Y323000D02*
Y331000D01*
X224167D02*
X233917D01*
X224167Y323000D02*
Y331000D01*
Y323000D02*
X233917D01*
X218917Y353250D02*
X239417D01*
Y300750D02*
Y353250D01*
X218917Y300750D02*
X239417D01*
X218917D02*
Y353250D01*
X192750Y323000D02*
Y331000D01*
Y323000D02*
X202500D01*
Y331000D01*
X192750D02*
X202500D01*
X187250Y300750D02*
X207750D01*
X187250D02*
Y353250D01*
X207750D01*
Y300750D02*
Y353250D01*
X124250Y299250D02*
Y307250D01*
Y299250D02*
X134000D01*
Y307250D01*
X124250D02*
X134000D01*
X118750Y277000D02*
X139250D01*
X118750D02*
Y329500D01*
X139250D01*
Y277000D02*
Y329500D01*
X124250Y244750D02*
Y252750D01*
Y244750D02*
X134000D01*
Y252750D01*
X124250D02*
X134000D01*
X118750Y222500D02*
X139250D01*
X118750D02*
Y275000D01*
X139250D01*
Y222500D02*
Y275000D01*
X238900Y428650D02*
Y433950D01*
X236100Y428650D02*
Y433950D01*
X222250Y439250D02*
X253000D01*
X222250Y423250D02*
X253000D01*
X190100Y428550D02*
Y433850D01*
X192900Y428550D02*
Y433850D01*
X176000Y423250D02*
X206750D01*
X176000Y439250D02*
X206750D01*
D11*
X83400Y436300D02*
G03*
X83400Y436300I-1000J0D01*
G01*
X133250Y577000D02*
G03*
X133250Y577000I-1000J0D01*
G01*
X161750Y720250D02*
G03*
X161750Y720250I-1000J0D01*
G01*
X224750Y533250D02*
G03*
X224750Y533250I-1000J0D01*
G01*
X254750Y448750D02*
G03*
X254750Y448750I-1000J0D01*
G01*
X161000Y193000D02*
G03*
X161000Y193000I-1000J0D01*
G01*
X138000Y860500D02*
G03*
X138000Y860500I-1000J0D01*
G01*
X238000D02*
G03*
X238000Y860500I-1000J0D01*
G01*
X88000Y8500D02*
G03*
X88000Y8500I-1000J0D01*
G01*
X187750D02*
G03*
X187750Y8500I-1000J0D01*
G01*
X38000Y860500D02*
G03*
X38000Y860500I-1000J0D01*
G01*
X269750Y471000D02*
Y491000D01*
X258750D02*
X269750D01*
X258750Y471000D02*
Y491000D01*
Y471000D02*
X269750D01*
X149062Y476813D02*
Y487812D01*
X169062D01*
Y476813D02*
Y487812D01*
X149062Y476813D02*
X169062D01*
X260500Y424750D02*
Y435750D01*
X280500D01*
Y424750D02*
Y435750D01*
X260500Y424750D02*
X280500D01*
X260250Y457000D02*
Y468000D01*
X280250D01*
Y457000D02*
Y468000D01*
X260250Y457000D02*
X280250D01*
X78500Y447750D02*
X89500D01*
X78500D02*
Y467750D01*
X89500D01*
Y447750D02*
Y467750D01*
X134900Y501050D02*
Y526450D01*
X7900Y501050D02*
X134900D01*
X7900Y526450D02*
X134900D01*
X7900Y501050D02*
Y526450D01*
X249750Y632250D02*
X255750D01*
X249750Y599250D02*
X255750D01*
X293800Y604100D02*
X319200D01*
Y477100D02*
Y604100D01*
X293800Y477100D02*
Y604100D01*
Y477100D02*
X319200D01*
X255000Y536500D02*
X261000D01*
X255000Y569500D02*
X261000D01*
X0Y143000D02*
X328000D01*
X0Y726000D02*
X328000D01*
X260500Y440500D02*
Y451500D01*
X280500D01*
Y440500D02*
Y451500D01*
X260500Y440500D02*
X280500D01*
X304500Y441000D02*
Y451000D01*
X304750Y457250D02*
Y467250D01*
X294249Y684881D02*
Y674884D01*
X299248D01*
X300914Y676551D01*
Y683215D01*
X299248Y684881D01*
X294249D01*
X304246Y674884D02*
X307578D01*
X305912D01*
Y684881D01*
X304246Y683215D01*
X262063Y684881D02*
Y674884D01*
X267062D01*
X268728Y676551D01*
Y683215D01*
X267062Y684881D01*
X262063D01*
X278725Y674884D02*
X272060D01*
X278725Y681549D01*
Y683215D01*
X277059Y684881D01*
X273726D01*
X272060Y683215D01*
X230396Y684881D02*
Y674884D01*
X235394D01*
X237061Y676551D01*
Y683215D01*
X235394Y684881D01*
X230396D01*
X240393Y683215D02*
X242059Y684881D01*
X245391D01*
X247057Y683215D01*
Y681549D01*
X245391Y679883D01*
X243725D01*
X245391D01*
X247057Y678217D01*
Y676551D01*
X245391Y674884D01*
X242059D01*
X240393Y676551D01*
X196248Y643837D02*
X186252D01*
Y648836D01*
X187918Y650502D01*
X191250D01*
X192916Y648836D01*
Y643837D01*
X187918Y660498D02*
X186252Y658832D01*
Y655500D01*
X187918Y653834D01*
X189584D01*
X191250Y655500D01*
Y658832D01*
X192916Y660498D01*
X194582D01*
X196248Y658832D01*
Y655500D01*
X194582Y653834D01*
X196248Y663831D02*
Y667163D01*
Y665497D01*
X186252D01*
X187918Y663831D01*
X143336Y517998D02*
X150000Y508002D01*
Y517998D02*
X143336Y508002D01*
X153332D02*
X156664D01*
X154998D01*
Y517998D01*
X153332Y516332D01*
X172502Y545337D02*
X179166D01*
X182498Y548669D01*
X179166Y552002D01*
X172502D01*
X182498Y555334D02*
X172502D01*
Y560332D01*
X174168Y561998D01*
X177500D01*
X179166Y560332D01*
Y555334D01*
Y558666D02*
X182498Y561998D01*
Y565331D02*
Y568663D01*
Y566997D01*
X172502D01*
X174168Y565331D01*
X48669Y409998D02*
Y401668D01*
X50335Y400002D01*
X53668D01*
X55334Y401668D01*
Y409998D01*
X65331Y400002D02*
X58666D01*
X65331Y406666D01*
Y408332D01*
X63665Y409998D01*
X60332D01*
X58666Y408332D01*
X205336Y483498D02*
Y475168D01*
X207002Y473502D01*
X210334D01*
X212000Y475168D01*
Y483498D01*
X215332Y473502D02*
X218664D01*
X216998D01*
Y483498D01*
X215332Y481832D01*
X115671Y477002D02*
Y486998D01*
X120669D01*
X122336Y485332D01*
Y482000D01*
X120669Y480334D01*
X115671D01*
X119003D02*
X122336Y477002D01*
X132332D02*
X125668D01*
X132332Y483666D01*
Y485332D01*
X130666Y486998D01*
X127334D01*
X125668Y485332D01*
X135665Y486998D02*
X142329D01*
Y485332D01*
X135665Y478668D01*
Y477002D01*
X114248Y234671D02*
X104252D01*
Y239669D01*
X105918Y241336D01*
X109250D01*
X110916Y239669D01*
Y234671D01*
Y238003D02*
X114248Y241336D01*
Y251332D02*
Y244668D01*
X107584Y251332D01*
X105918D01*
X104252Y249666D01*
Y246334D01*
X105918Y244668D01*
X104252Y261329D02*
X105918Y257997D01*
X109250Y254664D01*
X112582D01*
X114248Y256331D01*
Y259663D01*
X112582Y261329D01*
X110916D01*
X109250Y259663D01*
Y254664D01*
X113998Y292421D02*
X104002D01*
Y297419D01*
X105668Y299086D01*
X109000D01*
X110666Y297419D01*
Y292421D01*
Y295753D02*
X113998Y299086D01*
Y309082D02*
Y302418D01*
X107334Y309082D01*
X105668D01*
X104002Y307416D01*
Y304084D01*
X105668Y302418D01*
X104002Y319079D02*
Y312414D01*
X109000D01*
X107334Y315747D01*
Y317413D01*
X109000Y319079D01*
X112332D01*
X113998Y317413D01*
Y314081D01*
X112332Y312414D01*
X70498Y449004D02*
X60502D01*
Y454002D01*
X62168Y455669D01*
X65500D01*
X67166Y454002D01*
Y449004D01*
Y452336D02*
X70498Y455669D01*
Y459001D02*
Y462333D01*
Y460667D01*
X60502D01*
X62168Y459001D01*
X68832Y467332D02*
X70498Y468998D01*
Y472330D01*
X68832Y473996D01*
X62168D01*
X60502Y472330D01*
Y468998D01*
X62168Y467332D01*
X63834D01*
X65500Y468998D01*
Y473996D01*
X203498Y359254D02*
X193502D01*
Y364252D01*
X195168Y365919D01*
X198500D01*
X200166Y364252D01*
Y359254D01*
Y362586D02*
X203498Y365919D01*
Y369251D02*
Y372583D01*
Y370917D01*
X193502D01*
X195168Y369251D01*
X193502Y384246D02*
X195168Y380914D01*
X198500Y377581D01*
X201832D01*
X203498Y379248D01*
Y382580D01*
X201832Y384246D01*
X200166D01*
X198500Y382580D01*
Y377581D01*
X233915Y359004D02*
X223918D01*
Y364002D01*
X225584Y365668D01*
X228917D01*
X230583Y364002D01*
Y359004D01*
Y362336D02*
X233915Y365668D01*
Y369001D02*
Y372333D01*
Y370667D01*
X223918D01*
X225584Y369001D01*
X223918Y383996D02*
Y377332D01*
X228917D01*
X227250Y380664D01*
Y382330D01*
X228917Y383996D01*
X232249D01*
X233915Y382330D01*
Y378998D01*
X232249Y377332D01*
X297748Y360254D02*
X287752D01*
Y365252D01*
X289418Y366918D01*
X292750D01*
X294416Y365252D01*
Y360254D01*
Y363586D02*
X297748Y366918D01*
Y370251D02*
Y373583D01*
Y371917D01*
X287752D01*
X289418Y370251D01*
Y378581D02*
X287752Y380248D01*
Y383580D01*
X289418Y385246D01*
X296082D01*
X297748Y383580D01*
Y380248D01*
X296082Y378581D01*
X289418D01*
X265582Y359669D02*
X255585D01*
Y364668D01*
X257251Y366334D01*
X260583D01*
X262249Y364668D01*
Y359669D01*
Y363002D02*
X265582Y366334D01*
X263916Y369666D02*
X265582Y371332D01*
Y374664D01*
X263916Y376331D01*
X257251D01*
X255585Y374664D01*
Y371332D01*
X257251Y369666D01*
X258917D01*
X260583Y371332D01*
Y376331D01*
X263169Y408002D02*
Y417998D01*
X268168D01*
X269834Y416332D01*
Y413000D01*
X268168Y411334D01*
X263169D01*
X266502D02*
X269834Y408002D01*
X279831Y417998D02*
X276498Y416332D01*
X273166Y413000D01*
Y409668D01*
X274832Y408002D01*
X278165D01*
X279831Y409668D01*
Y411334D01*
X278165Y413000D01*
X273166D01*
X100500Y152918D02*
Y159582D01*
X98834Y161248D01*
X95502D01*
X93835Y159582D01*
Y152918D01*
X95502Y151252D01*
X98834D01*
X97168Y154584D02*
X100500Y151252D01*
X98834D02*
X100500Y152918D01*
X103832Y151252D02*
X107164D01*
X105498D01*
Y161248D01*
X103832Y159582D01*
X131835Y404748D02*
X128503D01*
X126837Y403082D01*
Y396418D01*
X128503Y394752D01*
X131835D01*
X133502Y396418D01*
Y403082D01*
X131835Y404748D01*
X136834D02*
Y394752D01*
Y398084D01*
X143498Y404748D01*
X138500Y399750D01*
X143498Y394752D01*
X146831D02*
X150163D01*
X148497D01*
Y404748D01*
X146831Y403082D01*
X53752Y680669D02*
X63748D01*
Y685668D01*
X62082Y687334D01*
X55418D01*
X53752Y685668D01*
Y680669D01*
Y697331D02*
Y690666D01*
X58750D01*
X57084Y693998D01*
Y695665D01*
X58750Y697331D01*
X62082D01*
X63748Y695665D01*
Y692332D01*
X62082Y690666D01*
X162418Y262418D02*
X160752Y260752D01*
Y257420D01*
X162418Y255754D01*
X169082D01*
X170748Y257420D01*
Y260752D01*
X169082Y262418D01*
X170748Y265751D02*
Y269083D01*
Y267417D01*
X160752D01*
X162418Y265751D01*
Y274081D02*
X160752Y275748D01*
Y279080D01*
X162418Y280746D01*
X169082D01*
X170748Y279080D01*
Y275748D01*
X169082Y274081D01*
X162418D01*
X193834Y169582D02*
X192168Y171248D01*
X188836D01*
X187169Y169582D01*
Y162918D01*
X188836Y161252D01*
X192168D01*
X193834Y162918D01*
X197166D02*
X198832Y161252D01*
X202164D01*
X203831Y162918D01*
Y169582D01*
X202164Y171248D01*
X198832D01*
X197166Y169582D01*
Y167916D01*
X198832Y166250D01*
X203831D01*
X296834Y627832D02*
X295168Y629498D01*
X291835D01*
X290169Y627832D01*
Y621168D01*
X291835Y619502D01*
X295168D01*
X296834Y621168D01*
X300166Y629498D02*
X306831D01*
Y627832D01*
X300166Y621168D01*
Y619502D01*
X65834Y631582D02*
X64168Y633248D01*
X60835D01*
X59169Y631582D01*
Y624918D01*
X60835Y623252D01*
X64168D01*
X65834Y624918D01*
X75831Y633248D02*
X72498Y631582D01*
X69166Y628250D01*
Y624918D01*
X70832Y623252D01*
X74165D01*
X75831Y624918D01*
Y626584D01*
X74165Y628250D01*
X69166D01*
X255084Y585832D02*
X253418Y587498D01*
X250086D01*
X248419Y585832D01*
Y579168D01*
X250086Y577502D01*
X253418D01*
X255084Y579168D01*
X263414Y577502D02*
Y587498D01*
X258416Y582500D01*
X265081D01*
D12*
X111850Y376340D02*
G03*
X111850Y396660I0J10160D01*
G01*
Y357290D02*
Y376340D01*
Y396660D02*
Y415710D01*
X162650Y357290D02*
Y415710D01*
X111850Y357290D02*
X162650D01*
X111850Y415710D02*
X162650D01*
D13*
X104430Y661330D02*
G03*
X104430Y661330I-1500J0D01*
G01*
D14*
X314300Y657850D02*
Y701150D01*
X288700Y657850D02*
Y701150D01*
Y657850D02*
X290800D01*
X312200D02*
X314300D01*
X288700Y701150D02*
X290800D01*
X312200D02*
X314300D01*
X283050Y657850D02*
Y701150D01*
X257450Y657850D02*
Y701150D01*
Y657850D02*
X259550D01*
X280950D02*
X283050D01*
X257450Y701150D02*
X259550D01*
X280950D02*
X283050D01*
X251576Y657850D02*
Y701150D01*
X225976Y657850D02*
Y701150D01*
Y657850D02*
X228076D01*
X249476D02*
X251576D01*
X225976Y701150D02*
X228076D01*
X249476D02*
X251576D01*
X20200Y419800D02*
X22500D01*
X20200Y351200D02*
Y419800D01*
Y351200D02*
X22500D01*
X91500Y419800D02*
X93800D01*
Y351200D02*
Y419800D01*
X91500Y351200D02*
X93800D01*
X102750Y649500D02*
X120750Y631500D01*
X17750Y649500D02*
X102750D01*
X17750Y546500D02*
X102750D01*
X120750Y564500D01*
Y582300D01*
Y613700D02*
Y631500D01*
X17750Y546500D02*
Y582300D01*
Y613700D02*
Y649500D01*
X25450Y717200D02*
X94050D01*
X25450Y658800D02*
X94050D01*
X214750Y597250D02*
Y713250D01*
X139250Y597250D02*
X214750D01*
X139250D02*
Y713250D01*
X214750D01*
X160250Y523750D02*
Y536150D01*
Y523750D02*
X195250D01*
X160250Y576350D02*
Y588750D01*
X195250D01*
X189250Y445750D02*
X234250D01*
X189250Y511750D02*
X234250D01*
X49600Y216000D02*
X153600D01*
X49600Y170000D02*
Y216000D01*
Y170000D02*
X153600D01*
Y216000D01*
X181500Y223000D02*
X311500D01*
X181500Y183000D02*
X311500D01*
Y223000D01*
X181500Y183000D02*
Y223000D01*
Y243000D02*
X311500D01*
X181500Y283000D02*
X311500D01*
X181500Y243000D02*
Y283000D01*
X311500Y243000D02*
Y283000D01*
X112000Y772500D02*
Y850500D01*
X212000Y772500D02*
Y850500D01*
X112000D02*
X212000D01*
X112000Y772500D02*
X212000D01*
Y850500D01*
X312000Y772500D02*
Y850500D01*
X212000D02*
X312000D01*
X212000Y772500D02*
X312000D01*
X112000Y18500D02*
Y96500D01*
X12000Y18500D02*
Y96500D01*
Y18500D02*
X112000D01*
X12000Y96500D02*
X112000D01*
X211750Y18500D02*
Y96500D01*
X111750Y18500D02*
Y96500D01*
Y18500D02*
X211750D01*
X111750Y96500D02*
X211750D01*
X12000Y772500D02*
Y850500D01*
X112000Y772500D02*
Y850500D01*
X12000D02*
X112000D01*
X12000Y772500D02*
X112000D01*
D15*
X31295Y750629D02*
X32962Y748963D01*
X36294D01*
X37960Y750629D01*
Y757294D01*
X36294Y758960D01*
X32962D01*
X31295Y757294D01*
Y753962D01*
X34628D01*
X98460D02*
X91795D01*
X95128Y750629D02*
Y757294D01*
X81799Y758960D02*
X88463D01*
X81799Y752296D01*
Y750629D01*
X83465Y748963D01*
X86797D01*
X88463Y750629D01*
X73468Y758960D02*
Y748963D01*
X78466Y753962D01*
X71802D01*
X287295Y750629D02*
X288962Y748963D01*
X292294D01*
X293960Y750629D01*
Y757294D01*
X292294Y758960D01*
X288962D01*
X287295Y757294D01*
Y753962D01*
X290628D01*
X246210Y750463D02*
X239545D01*
X242878D01*
Y760460D01*
X236213Y750463D02*
X229549Y760460D01*
Y750463D02*
X236213Y760460D01*
X226216Y755462D02*
X219552D01*
X216220Y750463D02*
Y760460D01*
X211221D01*
X209555Y758794D01*
Y752129D01*
X211221Y750463D01*
X216220D01*
X206223Y755462D02*
X199558D01*
X196226Y760460D02*
Y750463D01*
X191228D01*
X189562Y752129D01*
Y755462D01*
X191228Y757128D01*
X196226D01*
X192894D02*
X189562Y760460D01*
X186229Y750463D02*
X179565Y760460D01*
Y750463D02*
X186229Y760460D01*
X161460Y753962D02*
X154796D01*
X158128Y750629D02*
Y757294D01*
X151463Y750629D02*
X149797Y748963D01*
X146465D01*
X144799Y750629D01*
Y752296D01*
X146465Y753962D01*
X148131D01*
X146465D01*
X144799Y755628D01*
Y757294D01*
X146465Y758960D01*
X149797D01*
X151463Y757294D01*
X141466Y758960D02*
Y757294D01*
X139800D01*
Y758960D01*
X141466D01*
X133136Y750629D02*
X131470Y748963D01*
X128137D01*
X126471Y750629D01*
Y752296D01*
X128137Y753962D01*
X129804D01*
X128137D01*
X126471Y755628D01*
Y757294D01*
X128137Y758960D01*
X131470D01*
X133136Y757294D01*
X123139Y748963D02*
Y755628D01*
X119807Y758960D01*
X116475Y755628D01*
Y748963D01*
X278545Y96100D02*
Y80865D01*
Y88483D01*
X288702D01*
Y96100D01*
Y80865D01*
X293780D02*
X298858D01*
X296319D01*
Y96100D01*
X293780Y93561D01*
X67290Y494537D02*
X73955D01*
X70622D01*
Y484540D01*
X49205Y493121D02*
X47538Y494787D01*
X44206D01*
X42540Y493121D01*
Y486456D01*
X44206Y484790D01*
X47538D01*
X49205Y486456D01*
Y489788D01*
X45872D01*
X16290Y485540D02*
Y495537D01*
X21288D01*
X22954Y493871D01*
Y490538D01*
X21288Y488872D01*
X16290D01*
X19622D02*
X22954Y485540D01*
X141290Y114040D02*
Y124037D01*
X147955Y114040D01*
Y124037D01*
X175540D02*
Y114040D01*
X182204D01*
X185537Y112374D02*
X192201D01*
X200532Y124037D02*
X197200D01*
X195534Y122371D01*
Y115706D01*
X197200Y114040D01*
X200532D01*
X202198Y115706D01*
Y122371D01*
X200532Y124037D01*
X205530D02*
Y115706D01*
X207197Y114040D01*
X210529D01*
X212195Y115706D01*
Y124037D01*
X215527D02*
X222192D01*
X218859D01*
Y114040D01*
X72040Y124037D02*
Y114040D01*
X78705D01*
X82037Y112374D02*
X88701D01*
X92034Y124037D02*
X95366D01*
X93700D01*
Y114040D01*
X92034D01*
X95366D01*
X100364D02*
Y124037D01*
X107029Y114040D01*
Y124037D01*
X33040Y114040D02*
Y124037D01*
X39704Y114040D01*
Y124037D01*
M02*
