G04*
G04 #@! TF.GenerationSoftware,Altium Limited,Altium Designer,20.0.13 (296)*
G04*
G04 Layer_Color=16711935*
%FSLAX44Y44*%
%MOMM*%
G71*
G01*
G75*
%ADD29R,0.8032X0.7032*%
%ADD31R,0.7032X0.8032*%
%ADD37R,1.8032X1.8032*%
%ADD40C,2.4032*%
%ADD41R,1.4632X1.4632*%
%ADD42C,1.4632*%
%ADD43O,1.5240X2.8448*%
%ADD44R,1.5240X2.8448*%
%ADD45R,1.7032X1.7032*%
%ADD46C,1.7032*%
%ADD47R,1.7112X1.7112*%
%ADD48C,1.7112*%
%ADD49R,1.7032X1.7032*%
%ADD50C,2.1132*%
%ADD51R,2.1132X2.1132*%
%ADD52C,1.4032*%
%ADD53R,2.3032X2.3032*%
%ADD54C,2.3032*%
D29*
X269250Y679000D02*
D03*
Y689000D02*
D03*
X236750Y679250D02*
D03*
Y689250D02*
D03*
D31*
X251250Y664750D02*
D03*
X261250D02*
D03*
D37*
X300250Y657500D02*
D03*
Y689500D02*
D03*
X124250Y232500D02*
D03*
Y264500D02*
D03*
Y287250D02*
D03*
Y319250D02*
D03*
X228000Y249000D02*
D03*
Y217000D02*
D03*
Y190750D02*
D03*
Y158750D02*
D03*
Y132500D02*
D03*
Y100500D02*
D03*
Y74250D02*
D03*
Y42250D02*
D03*
X262750D02*
D03*
Y74250D02*
D03*
Y100500D02*
D03*
Y132500D02*
D03*
X262750Y249000D02*
D03*
Y217000D02*
D03*
Y190750D02*
D03*
Y158750D02*
D03*
D40*
X299500Y49750D02*
D03*
D41*
X82400Y423600D02*
D03*
D42*
X57000D02*
D03*
X31600D02*
D03*
Y347400D02*
D03*
X57000D02*
D03*
X82400D02*
D03*
D43*
X124550Y424600D02*
D03*
X149950D02*
D03*
Y348400D02*
D03*
D44*
X124550D02*
D03*
D45*
X20600Y513750D02*
D03*
D46*
X46000D02*
D03*
X71400D02*
D03*
X96800D02*
D03*
X122200D02*
D03*
X306500Y515200D02*
D03*
Y540600D02*
D03*
Y566000D02*
D03*
Y591400D02*
D03*
D47*
X160750Y680650D02*
D03*
D48*
Y655250D02*
D03*
Y629850D02*
D03*
D49*
X306500Y489800D02*
D03*
D50*
X76200Y196000D02*
D03*
X101600D02*
D03*
D51*
X127000D02*
D03*
D52*
X196500Y203000D02*
D03*
X296500D02*
D03*
Y263000D02*
D03*
X196500D02*
D03*
D53*
X137000Y812500D02*
D03*
X237000D02*
D03*
X87000Y56500D02*
D03*
X186750D02*
D03*
X37000Y812500D02*
D03*
D54*
X187000D02*
D03*
X287000D02*
D03*
X37000Y56500D02*
D03*
X136750D02*
D03*
X87000Y812500D02*
D03*
M02*
