M48
;Layer_Color=9474304
;FILE_FORMAT=4:4
METRIC,LZ
;TYPE=PLATED
T1F00S00C0.3000
T2F00S00C0.8128
T3F00S00C0.8400
T4F00S00C0.8500
T5F00S00C0.9000
T6F00S00C1.0000
T7F00S00C1.2700
T8F00S00C1.4000
T9F00S00C1.5000
%
T01
X000585Y00505
X0005875Y00524
X00083408Y00524007
X0008425Y00505
X0010975Y005055
Y005235
X00143706Y00441573
X00156907Y00441109
X0015925Y004545
X0020425Y004495
X002095Y00457
X0020375Y00464
X0020125Y0048325
X0021375Y0042125
X00236Y0052475
X002535Y00521
X002615Y0051675
X00269Y00522
X0031375Y0052725
X00314Y0050325
X00313Y005535
X0003375Y00524
X000345Y0050525
X0027925Y0058075
X003125Y00579
X0029075Y0061175
X0029025Y00639
T02
X0012455Y003484
X0014995
Y004246
X0012455
T03
X00057Y003474
X000824
Y004236
X00057
X000316
Y003474
T04
X001965Y00203
Y00263
X002965
Y00203
T05
X000714Y0051375
X000968
X001222
X003065Y005152
Y004898
Y005406
X00046Y0051375
X000206
X003065Y00566
Y005914
T06
X0016075Y0062985
Y0065525
Y0068065
T07
X000762Y00196
X001016
X00127
T08
X00037Y000565
X00087
X0013675
X0018675
X00037Y008125
X00087
X00137
X00187
X00237
X00287
T09
X002995Y0004975
M30
